<svg width="258" height="479" fill="none" xmlns="http://www.w3.org/2000/svg"><path d="M126.714 305.589c.92-.53.81-1.26.93-1.87 3.76-19.1 8.35-37.98 14.63-56.42 1.43-4.19 2.59-8.47 3.93-12.7 5.17-16.34 7.03-33.17 7.44-50.21.19-7.7.64-15.41.01-23.11-.47-5.81-1.71-11.52-2.59-17.27-.91-5.92-1.46-11.89-2.64-17.76-.63-3.14-1.44-6.24-2.33-9.31-.28-.97-.73-1.49-1.81-1.66-2.41-.39-4.55-1.41-6.09-3.38-.49-.63-1.07-.7-1.73-.62-3.3.4-6.55.11-9.76-.67-.59-.14-1.09-.15-1.65.12-5.12 2.47-10.39 1.92-15.64.64-7.28-1.78-13.38-5.71-18.76-10.83-3.7-3.52-6.86-7.51-10.04-11.47-3.52-4.4-7.52-8.19-12.27-11.24-4.24-2.72-8.06-5.94-10.59-10.43-3.05-5.42-4.12-11.37-4.55-17.46-.09-1.32.19-2.62.75-3.83.67-1.47 1.29-1.8 2.9-1.71.94.06 1.97.65 2.73-.38.78-1.05 1.45-2.09 1.43-3.55-.07-4.42.83-8.64 2.98-12.54 2.16-3.92 5.14-6.97 9.27-8.84 2.8-1.27 5.73-1.69 8.61-.54 2.12.85 4.22.2 6.31.48.84.11 1.23-.66 1.63-1.3 5.78-9.26 17.26-12.5 26.81-7.54 2.98 1.55 5.33 3.79 7.13 6.62.3.47.37 1.11.98 1.33.38-.09.5-.4.6-.7 1.28-3.92 3.9-6.8 7.21-9.08 2.04-1.41 3.89-3 5.43-4.94 2-2.51 4.63-3.53 7.79-3.41 2.23.08 4.39.51 6.54 1.07 3.16.82 6.32.96 9.48.05 4.68-1.35 9.09-.56 13.35 1.57 3.05 1.52 5.73 3.53 7.77 6.29.61.83 1.26 1.4 2.32 1.65 2.62.6 4.43 2.34 5.93 4.49 3.39 4.89 4.7 10.4 5.07 16.23.25 3.96-.14 7.86-.75 11.76-1.4 9.09-3.53 18.03-5.56 26.98-2.16 9.54-6.5 18-13.24 25.19-3.76 4.01-8.12 6.88-13.64 7.71-1.93.29-3.34.84-3.57 3.23-.16 1.7-1.23 3.3-2.65 4.31-1.33.95-1.38 1.96-1.05 3.36 1.4 5.83 2.36 11.74 3.24 17.67 1.19 8.04 1.54 16.16 2.29 24.25.56 6.04 1.27 12.07 1.52 18.14.01.25.05.49.07.74.03.41.02.91.46 1.05.62.19.86-.36 1.05-.79 1.78-3.89 3.9-7.59 5.94-11.34 4.21-7.73 8.82-15.18 14.9-21.62 1.02-1.08 1.94-2.22 2.82-3.4.86-1.15 1.46-2.36 1.57-3.8.12-1.62.94-2.81 2.4-3.45 1.25-.55 1.91-1.38 2.13-2.74.27-1.66.89-3.17 2.77-3.7.81-.23.96-1.07 1.27-1.71 1.85-3.8 2.79-7.88 3.56-12 .66-3.54 1.14-7.12 1.71-10.68 1.57-9.71 6.38-17.26 14.86-22.39 2.38-1.44 4.76-2.9 7.08-4.44 2.26-1.5 4.3-3.27 6.1-5.32.49-.55.97-1.12 1.53-1.59 1.58-1.35 2.7-1.17 3.88.49.38.53.4 1.27 1.04 1.68 2.9-1.89 5.98-3.37 9.56-3.49.99-.03 1.98-.05 2.93.25 1.89.59 3.12 1.75 3.27 3.84.05.73.16 1.46.24 2.21.29.05.53.09.77.12 2.37.28 3.22 1.25 2.8 3.59-.55 3.06-1.18 6.13-2.51 8.98-.38.81-.75 1.63-1.13 2.45 2.3.74 2.87 1.63 2.55 3.94-.2 1.4-.76 2.68-1.38 3.93-1.9 3.84-4.18 7.44-7.06 10.63-5.15 5.69-10.94 10.6-17.78 14.17-3.08 1.61-6.4 2.53-9.79 3.19-4.19.82-8.36 1.72-12.19 3.74-1.29.68-2.62 1.23-3.45 2.61-.59.97-1.68 1.54-2.65 2.16-1.49.96-2.61 2.23-3.27 3.88-.93 2.35-2.45 3.96-5.04 4.58-1.88.45-3.2 1.93-4.42 3.39-4.44 5.3-8.42 10.91-11.69 17.01-4.07 7.6-8.09 15.22-11.45 23.17-2.64 6.25-4.19 12.78-5.04 19.47-1.22 9.63-3.44 19.04-6.05 28.37-5.75 20.54-11.4 41.11-15.68 62.03-1.74 8.53-4.6 16.77-6.46 25.27-2.48 11.3-3.44 22.68-2.05 34.21.28 2.35.35 4.74.39 7.12.19 10.44 2.27 20.51 5.85 30.3 3.34 9.11 7.09 18.02 12.04 26.38 3.14 5.3 6.83 10.22 10.71 14.99.2.24.46.43 1.08 1.01-.16-.9-.24-1.38-.34-1.86-.85-4-.7-7.99.1-11.97.23-1.13.32-2.21.1-3.38-.45-2.45-.1-4.9.41-7.32.67-3.22 1.62-6.36 2.61-9.49 2.08-6.53 2.69-13.14 1.23-19.9-.84-3.89-2.31-7.3-5.87-9.56-1.93-1.23-3.63-2.82-5.11-4.59-2.28-2.74-3.14-5.78-1.56-9.14 1.26-2.68 1.34-5.33.48-8.13-1.15-3.79-1.09-7.79-1.78-11.66-.63-3.55-1.36-7.08-2.03-10.62-.36-1.94-.6-3.89-.44-5.87.09-1.07.23-2.19 1.39-2.68 1.18-.5 2.03.22 2.86.93 1.9 1.63 3.2 3.71 4.46 5.83 1.04 1.76 1.97 3.6 3.25 5.21 1.67 2.1 2.61 2.24 4.73.73 2.68-1.91 4.41-1.5 5.87 1.42.44.88.86 1.77 1.2 2.7.56 1.54 1.49 2.65 2.97 3.43 1.44.76 2.21 2.13 2.76 3.64.82 2.29.89 4.66.88 7.04 0 3.52-.29 7.04-.1 10.57.06 1.07.22 2.08.63 3.18 1.5-.77 1.78-2.1 2.16-3.31 1.04-3.41 1.31-6.91 1.19-10.46-.16-4.59-.68-9.16-.4-13.76.39-6.41 1.26-12.73 3.12-18.89 1.53-5.06 3.73-9.81 6.86-14.1.48-.66.86-1.4 1.3-2.09 1-1.56 2.24-2.9 4.1-3.34 1.96-.47 3.1-1.73 3.87-3.45.4-.9.77-1.81 1.16-2.72.52-1.21 1.12-2.37 1.99-3.38 1.94-2.23 4.05-2.29 6.09-.18.11.12.23.23.34.35 2.25 2.48 2.75 2.46 4.66-.39 1.28-1.91 2.43-3.9 3.66-5.84 1.14-1.81 2.39-3.52 3.77-5.16 2.89-3.44 6.65-5.52 10.79-7.04 1.28-.47 2.78-.76 3.75.13 1.05.96.42 2.49.08 3.72-.76 2.67-1.64 5.3-2.5 7.95-1.04 3.22-1.55 6.53-1.84 9.89-.14 1.68.33 3.04 1.4 4.29 2.86 3.35 2.93 6.45.29 9.99-.84 1.13-1.89 2.05-2.97 2.93-.95.78-1.9 1.56-2.86 2.33-2.18 1.77-3.66 3.87-3.94 6.81-.28 2.98-1.85 5.38-4.1 7.34-7.92 6.89-12.35 15.8-14.85 25.81-.12.48-.16.97-.27 1.45-.22.98.54 1.31 1.16 1.63.7.36 1.02-.25 1.32-.73.99-1.62 1.62-3.4 2.22-5.19.89-2.64 1.81-5.27 3.08-7.77 1.13-2.22 2.58-4.18 4.41-5.87 2.83-2.61 5.65-5.23 8.5-7.83.66-.61 1.35-1.21 2.1-1.7 2-1.29 3.36-.99 4.43 1.11.55 1.07 1.14 1.9 2.32 2.35 1.08.41 1.52 1.41 1.69 2.53.23 1.49.06 2.96-.37 4.38-.74 2.43-1.5 4.86-2.37 7.25-1.26 3.47-1.42 6.99 0 10.34 2.15 5.08 1.24 9.75-1.18 14.41-3.81 7.34-8.74 13.66-15.94 17.99-8.64 5.2-16.91 10.95-25.03 16.93-5.01 3.68-10.54 6.61-15.42 10.53-4.49 3.62-7.91 7.81-9.19 13.55-.32 1.43-.91 2.81-1.35 4.22-.54 1.73-.98 3.48-1.05 5.3-.14 3.4.57 6.24 3.49 8.65 6.82 5.65 13.67 11.27 20.69 16.68 2.37 1.82 5.02 3.11 7.86 3.99 1.96.6 3.93 1.18 5.93 1.65 4.08.96 8.07 2.18 11.95 3.78 3.81 1.57 7.76 2.63 11.87 3.11.65.08 1.31.14 1.94.32 1.83.53 2.66 2.3 1.96 4.1-.92 2.36-3.33 3.76-5.98 3.21-2.73-.56-5.47-1.18-8.1-2.07-7.38-2.5-14.74-5.09-22.06-7.77-6.46-2.37-12.18-6.06-17.47-10.41-5.95-4.9-11.83-9.9-17.83-14.75-9.49-7.67-16.52-17.23-22.01-28.04-8.03-15.83-12.9-32.61-15.41-50.13-1.31-9.17-.73-18.33.04-27.49.17-1.96.28-3.94.62-5.87 1.52-8.77.14-17.33-1.92-25.81-1.78-7.34-3.88-14.6-6.92-21.54-3.64-8.33-9.15-15.17-16.85-20.02-5.53-3.48-10.68-7.22-14.76-12.45-2.15-2.75-5.49-4.08-8.98-4.71-.88-.16-1.79-.21-2.69-.27-3.94-.27-7.54-1.42-10.76-3.77-2.26-1.65-4.79-2.85-7.42-3.82-1.62-.6-3.21-1.26-4.69-2.17-2.68-1.65-3.69-3.64-2.88-6.63.55-2.04-.04-3.48-1.34-4.9-1.23-1.35-2.59-2.52-4.17-3.41-4.93-2.78-9.86-5.58-14.81-8.31-2.66-1.47-5.28-3-7.63-4.95-.69-.58-1.38-1.18-1.94-1.87-1.53-1.89-1.69-3.36-.34-5.38.99-1.48.91-2.74-.16-4.02-1-1.19-2.07-2.32-3.06-3.53-1.6-1.95-1.17-3.2 1.3-3.9 1.55-.44 3.09-.24 4.63.03 3.31.57 6.61 1.24 9.99 1.26 1.57 0 3.11-.13 4.57-.79 1.04-.47 1.32-1.16.79-2.16-.62-1.17-1.41-2.21-2.25-3.22-2.83-3.4-5.86-6.63-8.37-10.3-1.32-1.92-3.13-3.35-5.28-4.3-4.74-2.09-8.34-5.45-11.01-9.85-1.49-2.46-3.14-4.79-5.06-6.94-.87-.97-1.89-2.07-1.17-3.49.69-1.38 2.09-1.69 3.56-1.77 1.27-.07 2.43.23 3.54.82 1.47.79 3.03 1.21 4.7 1.3.9.05 1.81.13 2.68.36 3.08.81 6.17.8 9.27.27 6.39-1.1 12.02.62 17.02 4.62 1.41 1.13 2.8 2.28 4.15 3.48 2.53 2.25 5.22 4.25 8.36 5.58 6.44 2.73 11.03 7.54 14.91 13.18 1.95 2.84 3.61 5.86 5.38 8.82.42.7.85 1.41 1.39 2.02 1 1.11 2.21 1.69 3.74 1.09 2.43-.95 4.23-.11 5.83 1.82 1.53 1.85 2.87 3.78 3.67 6.06.41 1.17 1.05 2.23 2.02 3.05 1.52 1.28 3.27 1.14 4.55-.39.7-.83 1.14-1.8 1.44-2.84.55-1.9.82-3.84.89-5.82.06-1.8.15-3.6.25-5.4.09-1.49.43-2.92 1.08-4.27 1.76-3.63 4.29-3.85 6.67-.57 1.9 2.62 3.04 5.63 4.27 8.57 1.3 3.11 3.2 5.45 6.45 6.68 2.77 1.05 4.18 3.33 4.87 6.09.55 2.23.82 4.51.98 6.81.63 9.17.91 18.34.37 27.52-.34 5.86-1.5 11.54-3.48 17.06-.78 2.16-1.48 4.35-2.27 6.51-.81 2.19-.48 4.2.82 6.07 1.5 2.15 3.11 4.22 4.18 6.65.42.96 1.36 1.4 2.27 1.78 2.27.95 3.11 2.75 3.16 5.08.05 2.41-.5 4.73-1 7.05-1.27 5.84-.03 11.51.71 17.36l.04-.06zm37.42 100.65c.79-1.15 1.31-2.36 1.13-4.12a8.469 8.469 0 00-1.09 4.14c-.14.18-.32.34-.4.54-.09.24-.36.59.13.71.04 0 .22-.37.26-.59.04-.22-.02-.45-.03-.68zm-36.77-385.29c2.35-2.32 5.19-3.34 8.48-3.15 1.49.09 2.92.43 4.33.89 2.99.99 6.03 1.51 9.2 1.19 1.05-.11 2.16-.13 3.19.08 3.34.69 2.69-.22 2.03-2.57-.4-1.42-.92-2.81-1.37-4.21-.22-.7-.7-1.35-.62-2.45.79.92 1.26 1.65 1.58 2.5.79 2.07 1.49 4.17 2.06 6.32.14.55.13 1.18.62 1.56.24.19.58.38.85.36.36-.04.45-.43.42-.77-.1-1.2-.22-2.39-.38-4.12.87 1.76 1.3 3.07 1.34 4.47.04 1.45.57 2.47 1.81 2.91 2.24-2.97 4.33-5.91 6.61-8.69 1.33-1.62 3.17-2.53 5.33-2.73 1.15-.11 2.29-.17 3.43-.11.83.04 1.72 0 2.34-.58.99-.93 2.22-1.45 3.52-2.04-1.55-1.71-3.19-2.94-4.94-3.99-4.57-2.71-9.42-4.27-14.8-2.95-3.62.89-7.16.48-10.68-.54-1.66-.48-3.35-.83-5.07-.92-2.55-.14-4.96.25-6.68 2.36-2.09 2.57-4.58 4.67-7.26 6.6-.92.66-1.77 1.49-2.48 2.38-1.83 2.33-3.45 4.8-3.39 7.95-.28.27-.57.77-.28.94.58.34.57-.39.81-.68v-.01zm50.35 360.17c4.5-6.72 8.73-13.58 12.09-20.97 3.37-7.4 5.21-15.11 5.54-23.21.2-4.82.12-9.65 1.09-14.41.32-1.57.34-3.27 1.5-4.58l.04.02c.06 2.2-.64 4.31-.78 6.49-.2 3.06-.46 6.13.09 9.19-.17.25-.3.65 0 .7.4.07.19-.38.22-.61.64-.8.72-1.82 1-2.75 2.39-7.99 5.82-15.49 10.69-22.29 2-2.8 4.22-5.43 6.15-8.29 3.91-5.79 7.14-11.96 10.36-18.14 2.43-4.66 5.27-9.07 9.06-12.79.24-.24.71-.46.37-.98-3.04.7-5.59 2.2-7.74 4.48-2.5 2.65-4.37 5.73-6.23 8.81-1.19 1.96-2.25 4.03-3.85 5.69-2.5 2.6-4.21 2.01-5.79.05-.21-.25-.44-.49-.68-.72-1.27-1.21-2.32-1.29-3.69-.26-.74.55-1.25 1.29-1.66 2.11-.76 1.54-1.51 3.1-2.29 4.64-.89 1.75-2.16 3.08-4.15 3.56-2.14.52-3.58 1.96-4.63 3.78-7.11 12.24-10.36 25.41-9.51 39.57.21 3.43.66 6.85.29 10.3-.4 3.72-1.27 7.29-3.52 10.36-1.27 1.74-2.35 1.49-3.09-.53-.71-1.95-.89-3.99-.95-6.04-.09-3.03-.07-6.06-.17-9.09-.08-2.55-.1-5.27-2.3-7-2.09-1.65-3.36-3.67-4.31-6.11-1.11-2.88-2.19-3.11-4.76-1.5-.07.04-.13.1-.2.15-2.01 1.23-3.93.98-5.47-.8-.74-.86-1.4-1.82-1.99-2.8-1.23-2.03-2.37-4.11-3.58-6.15-.76-1.28-1.69-2.44-2.85-3.36-.94-.74-1.73-.46-2.01.7-.17.7-.18 1.47-.15 2.2.12 2.62.53 5.2 1.17 7.75.66 2.62 1.11 5.28 1.73 7.91.77 3.27.93 6.66 2.03 9.85 1.16 3.35 1.01 6.52-.76 9.71-1.77 3.2-1.13 5.68 1.48 8.17 1.81 1.72 4.02 2.82 6.06 4.18 2.04 1.36 3.6 3.01 4.34 5.44.7 2.29 1.19 4.58 1.37 6.97.51 6.7-.4 13.25-1.94 19.74-.11.45-.43.94.16 1.32.81-.15.87-.9 1.15-1.46 1.5-3.01 3.08-5.97 4.79-8.87 1.19-2.02 2.8-3.8 3.28-6.27.99-5.12 1.27-10.24.61-15.4-.5-3.89-.84-7.83-3.04-11.27-.04-.07.08-.24.18-.51 1.19.98 1.84 2.16 2.35 3.47 1.43 3.7 2.09 7.56 2.51 11.48.3 2.77-.17 5.56.27 8.32-.17.09-.21.2-.11.33.07-.09.14-.18.22-.27l.01-.01zm27.83.47c6.14-7.44 11.34-15.47 15.14-24.36 1.81-4.24 3.38-8.55 3.82-13.18.04-.39-.23-.98.64-1.12-.04 1.78-.16 3.48-.49 5.16-1.96 9.89-6.06 18.87-11.71 27.17-3.47 5.09-7.36 9.86-11.19 14.68-.36.46-1.01.82-.8 1.59.6.09.96-.28 1.34-.57 4.75-3.64 9.61-7.13 14.62-10.42 7.56-4.97 12.94-11.75 16.75-19.87 1.49-3.17 1.74-6.29-.04-9.42-2.19-3.85-2.2-7.81-.59-11.84.58-1.45 1.17-2.89 1.73-4.34.62-1.61 1.23-3.22 1.47-4.94.15-1.09.22-2.43-.79-2.91-1.57-.74-2.36-1.85-2.94-3.39-.47-1.26-1.18-1.37-2.31-.56-1.14.81-2.1 1.84-2.97 2.93-2.1 2.64-4.42 5.08-7.06 7.18-3.46 2.76-5.6 6.37-7.17 10.41-.83 2.15-1.37 4.38-2.07 6.57-1.19 3.71-2.52 4.09-5.65 1.84-2.27-1.63-3.7-1.44-5.41.77-.76.98-1.35 2.05-1.82 3.2-.97 2.36-1.67 4.8-2.25 7.28-.5 2.16-1.05 4.3-1.65 6.43-.72 2.57-2.28 4.53-4.65 5.77-1.15.6-1.91 1.5-2.49 2.62-.8 1.55-1.28 3.2-1.68 4.88-.68 2.88-1.44 5.73-2.44 8.51-1.39 3.86-3.54 7.21-6.57 9.97-.62.57-1.16 1.36-2.16 1.35-.15-.34.07-.48.25-.64 3.17-2.88 5.31-6.39 6.77-10.41 1.26-3.48 2.17-7.06 3.41-10.54.98-2.74 2.24-5.25 4.81-6.94 1.47-.97 2.36-2.5 2.82-4.22.47-1.74.88-3.5 1.28-5.26.98-4.33 2.02-8.64 4.66-12.35 1.61-2.27 3.51-3.92 6.62-3.24.8-3.62 2.38-6.88 3.4-10.34 1.89-6.4 5.3-11.78 10.5-16 2.91-2.37 4.77-5.35 5.33-9.12.3-2 1.25-3.74 2.73-5.12 2.45-2.3 4.91-4.6 7.43-6.82 2.64-2.32 2.81-4.34.31-6.79-1.1-1.08-1.88-2.26-2.07-3.8-.48-3.88-.29-7.69 1.01-11.42.84-2.41 2.02-4.66 3.14-6.95.62-1.28 1.23-2.57 1.03-4.35-2.55 2.13-4.51 4.3-6.21 6.72-2.56 3.64-4.7 7.51-6.58 11.53-2.63 5.6-5.92 10.76-9.69 15.67-3.2 4.16-6.5 8.24-9.04 12.88-4 7.3-6.23 15.15-7.65 23.28-.62 3.56-1.46 7.07-2.51 10.53-3.61 11.89-9.47 22.69-16.19 33.05-4.74 7.31-9.34 14.69-12.54 22.83-2.5 6.36-4.65 12.81-4.75 19.75-.05 3.15.45 6.07 1.54 8.1.55-4.5 1.97-8.59 3.32-12.71 1.08-3.27 2.88-6.05 5.29-8.48 4.37-4.4 9.31-8 14.69-11.06 2.76-1.57 5.76-2.8 7.92-5.31 2.68-3.11 5.04-6.47 7.49-9.76.57-.77.69-1.65.81-2.54.6-4.4.74-8.82.64-13.25-.01-.53-.33-1.17.33-1.58.3.43.24.94.29 1.42.41 3.84.16 7.7.26 11.55-.1.21-.17.45.06.58.25.14.36-.11.47-.29l.01.01zm-56.95-275.01c1.96-.64 3.98-1.32 6.01-1.96 3.69-1.18 6.38-3.5 8.37-6.83 3.4-5.69 5.95-11.72 7.24-18.21 3.24-16.36 1.28-32.15-5.66-47.3a23.385 23.385 0 00-6.2-8.17c-2.01-1.69-4.29-2.98-6.92-2.75-4.75.4-9.31-.18-13.78-1.75-.23-.08-.48-.11-.72-.14-3.87-.57-7.15.38-9.52 3.69-.53.73-1.04 1.63-1.89 1.88-2.33.7-3.3 2.42-4.05 4.53-.64 1.78-1.59 2.21-3.47 2.03-.65-.06-1.29-.24-1.93-.38-3.05-.65-6.04-1.55-8.98-2.59-2.99-1.06-7.87.75-9.27 3.48-1.44 2.78-3.54 4.87-6.04 6.67-1.57 1.13-2.71 2.62-3.16 4.55-.58 2.5-.72 5.01-.33 7.57.64 4.2 2.22 8.05 4.16 11.77 2.17 4.16 5 7.89 7.82 11.61 3.28 4.34 6.12 8.91 8.19 13.95 2.04 4.94 4.53 9.61 8.03 13.74 5.08 5.99 11.52 8.42 19.23 7.86 4.46-.32 8.72-1.47 12.88-3.25h-.01zm-145.86 46.39c-.15.56.1.89.38 1.19 1.52 1.62 2.78 3.45 3.94 5.33 2.72 4.39 6.44 7.63 11.14 9.7 2.9 1.28 5.02 3.38 6.66 6 1.84 2.94 4.11 5.5 6.52 7.98 1.47 1.52 3.02 3.01 4.05 4.92 1.01 1.88.78 3.17-.84 4.54-1.04.88-2.26 1.24-3.6 1.39-4.63.53-9.16-.09-13.64-1.2-1.43-.35-2.83-.47-4.22-.15-.1.88.44 1.2.81 1.61.82.91 1.72 1.77 2.49 2.72 1.62 2.01 2.31 4.13.6 6.5-.78 1.07-.57 2.18.25 3.16.79.94 1.66 1.81 2.65 2.56 5.27 3.98 11.19 6.8 17.12 9.6 3.12 1.48 6.19 3.05 8.58 5.62 1.94 2.09 3.2 4.26 1.47 7.26-1.05 1.81-.47 2.97 1.4 4.08.92.54 1.91.93 2.93 1.26 3.29 1.06 6.61 2.17 9.2 4.54 3.23 2.95 6.89 4.32 11.24 3.82.49-.06.98-.01 1.47-.02 1.84-.02 3.54.47 5.21 1.25 3.04 1.43 5.55 3.46 7.46 6.23.65.94 1.32 1.87 2.23 2.61 2.87 2.33 5.84 4.54 9.14 6.21 5.59 2.83 9.79 7.13 13.08 12.33 2.84 4.49 5.36 9.17 7.4 14.11 1.48 3.58 2.87 7.13 3.55 10.95.17.94.4 1.92 1.27 3.19-.88-6.03-1.44-11.57-3.57-16.89-3.38-8.44-6.43-17-9.96-25.39-1.54-3.65-3.44-7.06-5.54-10.37-3.37-5.3-7.67-9.79-12.34-13.95-6.39-5.7-13.24-10.75-20.85-14.68-4.81-2.48-9.67-4.84-14.59-7.11-5.81-2.68-11.69-5.16-17.7-7.34-.36-.13-1.06-.12-.9-.91.25 0 .49-.04.71 0 8.41 1.77 16.35 4.86 23.86 8.94 5.11 2.78 10.32 5.38 15.35 8.32 8.59 5.03 16.03 11.35 22.31 19.06.38.47.63 1.09 1.36 1.18.09-.49-.13-.84-.33-1.2-2.59-4.84-5.38-9.55-8.56-14.04-6.13-8.63-12.55-17.01-19.95-24.61-4.41-4.53-9.06-8.8-13.68-13.1-5.64-5.25-10.81-10.99-16.8-15.87-5.43-4.43-11.11-8.45-17.63-11.09-6.24-2.52-12.47-5.01-18.06-8.84-.91-.62-1.87-1.28-3.04-1.41l-.03.01zm105.4 101.59c.96-16.89-.66-33.62-3.06-50.36 1.68 3.23 2.91 7.95 3.27 13.45.87 13.08 1.88 26.16 1.33 39.29-.04.99.04 1.95.47 2.88 4.52 9.76 8.37 19.77 11.74 29.98.7 2.11.86 4.34 1.81 6.42.05-4.51 1.26-8.88 1.43-13.36.02-.57.01-1.15-.03-1.72-.13-1.68-.8-3.05-2.5-3.6-2.17-.7-3.33-2.25-4.05-4.29-.27-.77-.66-1.5-1.05-2.22-2.45-4.54-3.21-9.23-1.45-14.21.63-1.78 1.06-3.62 1.6-5.43 1.15-3.87 2.01-7.8 2.2-11.83.34-6.96.59-13.93.79-20.89.11-3.85.1-7.71-.55-11.53-.59-3.42-1.98-6.21-5.46-7.59-2.85-1.13-4.59-3.37-5.58-6.2-.76-2.17-1.64-4.29-2.63-6.36-.71-1.48-1.52-2.92-2.71-4.08-1.22-1.18-1.79-1.08-2.62.37-.79 1.37-1.17 2.87-1.41 4.43-.58 3.73-1.2 7.45-1.82 11.17-.19 1.14-.52 2.24-1.08 3.26-1.55 2.82-4.75 3.52-7.32 1.56-1.2-.91-1.96-2.16-2.63-3.5-.91-1.83-1.61-3.76-2.59-5.57-1.02-1.88-2.23-2.69-4.35-2.06-1.73.51-3.23-.15-4.59-1.19-1.32-1-2.38-2.27-3.33-3.6-1.72-2.4-3.38-4.84-5.05-7.27-3.61-5.29-7.9-9.85-13.72-12.77-3.69-1.85-6.98-4.3-10.16-6.89-1.08-.88-2.18-1.74-3.29-2.58-4.74-3.57-9.99-5.18-15.94-4.15-2.88.5-5.72.26-8.47-.81a11.41 11.41 0 00-4.09-.76c-1.65 0-3.24-.3-4.79-.95-1.14-.48-2.39-.91-3.88-.18 3.43 1.92 6.46 4.04 9.87 5.48 4.16 1.75 8.25 3.66 12.34 5.56 8.01 3.72 15.48 8.25 22.2 14.01 3.74 3.21 7.11 6.8 10.68 10.19 6.37 6.04 12.75 12.07 18.39 18.82 5.26 6.29 9.99 12.99 14.89 19.56 6.85 9.19 12.27 19.16 17.18 29.53l.01-.01zm15.29-145.02c-2.01-1.14-3.66-2.14-5.1-3.45-4.19-3.8-7.46-8.27-9.62-13.5-2.74-6.62-6.02-12.9-10.6-18.47-1.35-1.64-2.55-3.42-3.69-5.21-5.1-7.95-8.82-16.3-7.35-26.1.11-.76-.08-1.25-.75-1.62-4.51-2.48-9.17-4.48-14.47-3.95-4.68.47-8.45 2.48-10.59 6.9-.77 1.6-1.91 2.3-3.76 2.01-1.66-.27-2.02.06-2.22 1.72-.12 1.05-.09 2.13 0 3.19.14 1.63.41 3.25.59 4.88.76 7.04 3.97 12.75 9.37 17.25 1.82 1.52 3.67 3.03 5.6 4.4 4.1 2.91 7.78 6.27 11.06 10.07 1.87 2.17 3.74 4.35 5.6 6.53 3.31 3.88 6.9 7.47 11.16 10.31 5.34 3.56 11.09 6.02 17.63 6.14 2.26.04 4.52-.09 7.11-1.1h.03zm25.76 3.43c-1.28 1.43-.91 2.79-.48 4.35 1.34 4.9 2.44 9.86 3.15 14.9.77 5.44 1.61 10.86 2.5 16.28 1.29 7.78 2.15 15.58 1.77 23.49-.26 5.41-.42 10.82-.68 16.22-.82 17.03-3.42 33.75-8.19 50.15-3.87 13.31-8.32 26.45-11.53 39.96-2.77 11.66-5.63 23.29-7.56 35.12-1.48 9.07-2.45 18.21-3.16 27.37-.49 6.3-.89 12.62-.35 18.92 1.09 12.72 3.99 25.1 8.07 37.17 2.1 6.2 4.79 12.19 7.75 18.06 4.82 9.56 10.99 18.07 19.11 25.07 6.77 5.84 13.67 11.53 20.56 17.24 6.37 5.29 13.44 9.41 21.25 12.19 6.18 2.2 12.42 4.24 18.64 6.33 1.72.58 3.49.89 5.31.92 1.27.02 2.47-.27 3.49-1 .63-.45 1.56-.91 1.28-1.87-.23-.8-1.17-.8-1.88-.92-1.05-.17-2.11-.36-3.17-.39-2.99-.1-5.84-.84-8.64-1.8-1.78-.61-3.53-1.33-5.31-1.96-5.25-1.88-10.62-3.42-15.63-5.94-9.3-4.69-17.52-10.93-25.51-17.52-3.57-2.94-6.61-6.36-9.28-10.12-2.75-3.88-5.41-7.82-8.47-11.47-4.61-5.51-8.12-11.69-11.19-18.16-1.94-4.08-3.52-8.3-5.24-12.47-2.54-6.19-4.11-12.63-5.25-19.18-1.54-8.81-1.37-17.8-2.33-26.68-.94-8.66.92-17.16 2.56-25.61 1.42-7.33 3.47-14.52 5.11-21.8 1.84-8.16 3.31-16.41 5.13-24.57 3.31-14.91 7.47-29.59 11.68-44.26 3.07-10.68 5.49-21.45 6.65-32.5.87-8.24 1.51-16.51.99-24.8-.43-6.78-1.32-13.54-1.8-20.32-.84-11.86-1.93-23.69-4.44-35.34-.48-2.22-.26-4.8-2.46-6.41 4.06-1.87 5.3-3.18 5.48-5.7-5.86 1.34-11.52 3.33-17.61 5.14 3.03 2.9 6.16 2.78 9.68 1.93v-.02zm14.24-12.19c4.05-1 7.13-2.58 9.77-5.03 5.57-5.16 9.66-11.3 12.44-18.37 3.6-9.15 5.33-18.76 7.04-28.36.98-5.48 1.82-11 1.7-16.61-.08-4.12-.4-8.2-2.12-12.03-1.22-2.72-2.73-5.26-5.14-7.09-2.36-1.79-5.04-2.56-7.66-.47-.97.78-2.19 1.05-3.47 1.05-1.14 0-2.29.15-3.43.19-1.94.08-3.49.99-4.61 2.47-1.63 2.15-3.17 4.38-4.67 6.63-.89 1.33-.98 2.68.18 4.04 1.01 1.18 1.73 2.58 2.4 3.99a76.76 76.76 0 017.3 27.42c.89 11.71-.43 23.08-5.22 33.93-1.19 2.69-2.65 5.24-4.52 8.23l.01.01zm-72.43-63.99c.91-.22 1.4-.64 1.92-1.05 1.52-1.22 2.34-2.93 3.35-4.52 2.52-3.94 5.74-5.25 10.29-4.36 3.4.67 6.65 1.79 9.92 2.86 2.69.88 3.31.52 4.16-2.12.36-1.12.8-2.09 1.87-2.77 1.69-1.06 1.76-1.28 1.21-3.14-1.2-4.03-3.68-7.18-7.2-9.35-8.73-5.39-20.39-2.5-25.74 6.26-.49.79-1.06 1.72-2 1.64-2.27-.2-4.5.66-6.81-.1-3.11-1.03-6.12-.48-8.99 1.14-4.59 2.59-7.56 6.47-9.29 11.35-.82 2.32-1.45 4.71-1.59 7.72 1.85-1.98 3.6-3.15 5.68-3.78 6.39-1.91 12.32-.7 17.91 2.68 1.99 1.2 2.76 1.04 3.91-.95.49-.84.12-1.62-.12-2.36-1-3.06-1.44-6.23-1.87-9.4-.08-.59-.33-1.24.39-1.84.97 4.06 1.22 8.2 2.97 12.08l.03.01zm107.43 90.66c4.37-3.66 8.53-7.35 12.9-10.78 7.32-5.74 13.2-12.73 18.27-20.46 1.43-2.17 2.44-4.49 1.96-7.18-.67-3.75.3-7.14 2.07-10.4.59-1.08 1.14-2.18 1.62-3.31.75-1.74 1.34-3.55 1.21-5.48-.07-1.11.09-2.54-1.32-2.89-1.22-.3-1.78.92-2.47 1.71-.11.12-.2.26-.3.39-2.03 2.72-4.42 5.06-7.24 6.96-2.44 1.65-4.95 3.2-7.42 4.82-7.4 4.88-11.88 11.62-13.02 20.48-.4 3.09-.69 6.2-1.17 9.27-.78 5.05-1.95 9.99-4.88 14.32-.49.72-.7 1.47-.23 2.53l.02.02zm3.76-1.49c2.54.42 4.36-.65 6.17-1.71 2.94-1.72 6.18-2.74 9.47-3.29 5.46-.93 10.62-2.52 15.46-5.24 8.6-4.83 15.19-11.54 19.53-20.42.79-1.61 1.49-3.28 1.93-5.03.12-.48.2-1.05-.22-1.38-.53-.43-1.09-.03-1.59.2-.22.1-.46.24-.58.43-1.4 2.31-3.51 4.07-5.1 6.3 1.37.38 1.8-1.09 2.81-1.27.24.58-.11.87-.4 1.1-1.99 1.58-4.05 3-6.48 3.91-2.94 1.1-6 1.71-9.05 2.17-3.57.54-6.55 2.12-9.08 4.5-4.35 4.09-8.59 8.28-13.37 11.89-3.19 2.41-6.17 5.09-9.49 7.85l-.01-.01zm26.14-24.64c2.12-.53 4.11-1.33 6.23-1.61 1.98-.26 3.51-1.24 4.89-2.59 3.42-3.35 6.13-7.25 8.71-11.24.67-1.02 1.21-2.21.68-3.48-.51-1.23-.18-2.27.58-3.2 2.2-2.69 2.77-5.86 2.84-9.2.05-2.44-.6-3.2-2.94-3.11-3.75.14-7.25 1.23-10.54 3-.54.29-.96.66-.99 1.3-.12 3.76-1.96 6.89-3.71 10.04-1.08 1.95-1.44 4.01-.98 6.17.75 3.51-.22 6.65-2.02 9.61-.88 1.46-1.84 2.88-2.76 4.31h.01zm11.93-2.59c.76-.05 1.41-.29 2.01-.73 1.58-1.17 3.15-2.35 4.47-3.83 4.58-5.13 7.26-11.24 9.07-17.79.17-.62.24-1.3.18-1.94-.08-.79-.75-.96-1.44-1.07-.63-.11-.89.21-1.08.72-.66 1.79-1.77 3.32-2.72 4.95-.41.7-.88 1.44-.66 2.31.56 2.24-.22 4.23-1.2 6.13-1.93 3.75-4.44 7.07-7.56 9.92-.41.38-.98.6-1.07 1.33z" fill="#657163"/><path d="M101.486 55.108c1.84 5.46 5.08 10.02 8.38 14.56 2.84 3.92 5.06 8.23 7.29 12.52 2.35 4.53 5.12 8.76 8.67 12.45.66.69 1.25 1.44 2.11 2.44-1.29-.2-1.73-.93-2.29-1.45-3.55-3.33-6.56-7.1-8.84-11.4-3.72-7.02-7.85-13.8-12.08-20.53-1.44-2.29-2.61-4.73-3.32-7.36-.1-.36-.41-.74.09-1.24l-.01.01zM152.992 56.52c3.89 6.85 5.32 35.78.83 42.95 3.17-14.7 2.74-28.85-.83-42.95z" fill="#000"/><path d="M123.613 88.9c-2.03-2.09-3.8-4.34-4.25-7.36 1.42 2.45 2.83 4.91 4.25 7.36zM197.944 317.961c-.27-.63-.02-1.15.27-1.82.55.84.2 1.35-.23 1.84l-.04-.02zM184.145 48.28c.96 1.39 1.33 2.94 1.5 4.55.37 3.46 0 6.88-.71 10.26-1.08 5.15-3.02 10.03-4.9 15.1-.53-.78-.12-1.35.05-1.9 1.11-3.69 2.34-7.35 3.17-11.12 1.23-5.57 2.25-11.16.9-16.9l-.01.01zM207.805 108.991c1.53-3.44 2.61-7.06 3.91-10.59 2.11-5.72 5.87-10.15 10.6-13.84.24-.19.48-.49.89-.31.14.72-.53.94-.89 1.29-4.89 4.77-8.33 10.47-10.82 16.79-.93 2.36-2.01 4.66-3.02 6.98-.29.03-.5-.09-.66-.33l-.01.01z" fill="#000"/></svg>