<svg width="253" height="482" fill="none" xmlns="http://www.w3.org/2000/svg"><path d="M210.043 145.156c3.79-3.62 8.2-6.04 13.39-6.93 2.62-.45 3.54.21 4.03 2.84.23 1.2.18 2.41.05 3.61-.14 1.39-.27 2.78-.41 4.16.71.26.89-.3 1.16-.61 1.34-1.51 2.8-2.89 4.44-4.09.99-.73 2.04-1.3 3.3-1.36 1.63-.07 2.7.9 2.76 2.52.02.46-.02.95-.13 1.4-.68 2.83-.64 5.73-.99 8.61.68.29.99-.24 1.38-.54 1.27-.99 2.42-2.14 3.93-2.78 2.11-.89 3.26-.09 3.21 2.18-.03 1.09-.31 2.13-.65 3.15-.64 1.91-1.32 3.81-1.97 5.72-.85 2.49-1.42 5.04-1.65 7.67-.2 2.21-.47 4.41-.93 6.58-.1.47-.5 1.18.17 1.39.62.19.78-.61 1.01-1.05 1.48-2.8 3.2-5.45 5.16-7.94 1.04-1.32 2.17-2.56 3.3-3.81.35-.39.8-.74 1.27-.96.62-.29 1.06 0 1.12.68.07.83-.26 1.58-.53 2.34-1.14 3.11-2.65 6.03-4.38 8.84-2.54 4.13-4.88 8.38-6.51 12.96-3.22 9.02-8.74 16.45-15.47 23.08-5.34 5.26-11.16 9.87-17.95 13.16-1.76.86-3.61 1.48-5.46 2.06-.77.24-1.28.48-1.29 1.46-.01 1.21-1 1.66-2.01 1.94-1.42.4-2.87.72-4.22 1.34-2.56 1.17-4.51 2.92-5.27 5.73-.73 2.7-2.31 4.89-4.86 5.82-1.56.57-2.35 1.54-3.26 2.67-4.37 5.41-7.35 11.58-9.58 18.1-2.95 8.65-5.76 17.36-7.94 26.25-3.85 15.7-5.47 31.62-4.3 47.79.43 5.97.33 11.95.49 17.93.28 10.52 1.81 20.87 4.38 31.08.95 3.78 1.86 7.57 2.8 11.36 1.78 7.17 5.1 13.72 8.33 20.29.33.66.68 1.31 1.03 1.96.02.04.11.05.27.13.46-.25.31-.77.31-1.16-.09-3.97.05-7.93.83-11.84.18-.88.06-1.75-.26-2.58-2.55-6.63-4.43-13.5-8.13-19.7-4.28-7.18-5.82-15.12-4.96-23.47.36-3.48.85-6.93 1.51-10.37 2.35-12.21 9.2-21 20.2-26.59 6.11-3.1 12.17-6.29 18.43-9.09 3.37-1.51 6.75-3 10.05-4.67 2.82-1.42 5.41-3.25 8.29-4.58a32.6 32.6 0 015.3-1.92c.58-.15 1.19-.2 1.79-.2 1.47-.01 1.71.3 1.34 1.65-.13.45-.31.89-.46 1.33-.4 1.21-.82 2.42-1.19 3.64-.96 3.14-1.12 6.33-.49 9.56.61 3.11.83 6.26.53 9.43-.75 7.79-.45 15.57.17 23.34.4 5.01.13 9.92-1.18 14.78-1 3.7-1.96 7.41-3.22 11.03-.82 2.36-1.92 4.59-3.26 6.69-3.04 4.76-7.37 7.72-12.77 9.21-3.9 1.08-7.93 1.42-11.9 2.12-4.07.72-7.92 2.08-11.48 4.23-1.21.73-2.33 1.58-3.3 2.63-1.41 1.53-2.16 3.19-2.16 5.41 0 7.82.6 15.57 1.8 23.29.47 3.01 1.41 5.86 2.7 8.62 1.82 3.9 3.37 7.91 5.58 11.63 2 3.35 3.92 6.74 5.88 10.11 1.69 2.92 3.69 5.61 6.03 8.04 1.12 1.16 2.23 2.34 2.99 3.78 1.08 2.02.58 3.62-1.43 4.74-2.29 1.27-4.84 1.33-6.73-1.32-3.6-5.04-7.04-10.2-9.58-15.85-4.6-10.25-9.78-20.21-14.59-30.35-4.87-10.28-9.37-20.69-12.73-31.59-2.98-9.68-5.05-19.51-5.81-29.61-.02-.27-.06-.54-.06-.8-.06-2.61-.8-4.84-2.49-6.99-2.65-3.36-3.85-7.51-5.36-11.47-4.47-11.71-7.98-23.7-10.94-35.87-1.91-7.84-4.03-15.63-5.05-23.65-.94-7.41-1.39-14.85-1.73-22.3-.14-3.04-.72-5.71-2.71-8.14-1.3-1.59-2.19-3.54-3.18-5.37-.58-1.06-1.3-1.45-2.55-1.37-4.52.31-8.92 1.18-13.22 2.6-4.41 1.45-8.81 2.9-13.28 4.15-7.59 2.13-14.99 1.84-22.26-1.37-4.38-1.93-8.57-4.19-12.52-6.9-2.99-2.05-5.43-4.58-7.16-7.79-1.61-2.98-3.79-5.53-6.11-7.96-1.66-1.73-3.84-2.41-6.06-3.01-4.51-1.23-9.06-.94-13.6-.25-3.25.49-6.49 1.12-9.75 1.59-7.29 1.06-12.06 5.17-14.62 11.98-.45 1.19-.81 2.42-1.24 3.62-.11.3-.25.66-.68.59-.39-.06-.55-.39-.59-.72-.27-2.09-.42-4.23.54-6.14 3.66-7.28 8.07-13.97 15.34-18.22 2.28-1.33 4.73-2.25 7.26-2.96.59-.17 1.19-.27 1.63-.73 2.49-2.63 5.69-4.24 8.7-6.13 3.63-2.29 7.27-4.59 10.94-6.82 6.5-3.94 13.51-6.21 21.16-6.43 3.98-.12 7.91-.71 11.64-2.13 9.45-3.61 18.45-2.11 27.3 2.15 5.95 2.87 11 6.75 14.46 12.44 4.74 7.79 7.27 16.14 6.03 25.38-.31 2.33-.44 4.68-.25 7.04.07.91.32 1.67.88 2.39.85 1.09 1.63 2.24 2.56 3.53.54-.92.33-1.71.3-2.46-.47-11.82-.6-23.64-.7-35.47-.16-17.59 1.85-35 4.29-52.38.49-3.47 1.2-6.9 2.22-10.24 1.47-4.82 2.36-9.81 4.22-14.51.27-.67.14-1.16-.31-1.65-2.04-2.25-2.26-4.92-1.81-7.75.22-1.39.47-2.78.64-4.18.37-3-.17-5.89-1.1-8.73-.35-1.06-1.14-1.81-1.85-2.61-.77-.87-1.39-1.81-1.56-2.99-.23-1.62.35-2.97 1.81-3.38 1.16-.33 1.07-.81.81-1.71-2.49-8.81-6.65-16.68-12.68-23.6-4.73-5.43-9.78-10.55-15.29-15.18-4.61-3.87-8.69-8.21-12.16-13.12-3.23-4.57-7.2-8.31-12.02-11.17-.8-.47-1.57-1.05-2.24-1.7-1.14-1.12-.91-2.2.53-2.82.87-.38 1.8-.58 2.74-.63 1.2-.06 2.43-.14 3.62 0 8.82 1.05 17.06 3.68 24.21 9.18 1.23.94 2.47 1.86 3.72 2.77.31.23.61.53 1.36.37-.14.03-.08-.08-.16-.24-2-4.03-2.28-8.38-2.35-12.77-.05-3.22-.06-6.45-.02-9.67.09-6.99-1.01-13.79-3.08-20.45-.54-1.73-1.09-3.47-1.2-5.3-.1-1.56.62-2.13 2.05-1.72.07.02.09.22.14.34-1.49.5-1.57.57-1.37 1.88.1.65.31 1.31.57 1.92 2.54 5.86 4 11.94 3.85 18.37-.13 5.63-.32 11.27.23 16.9.3 3.04 1.01 5.96 2.13 8.77.59 1.48 1.42 2.85 2.75 4.04-.1-2.11-.28-4.05-.28-5.99.03-8.99.17-17.99-1.81-26.85-.29-1.29-.29-2.68.09-4 .43-1.47 1.18-1.94 2.7-1.73 1.78.25 3.3 1.11 4.75 2.11 2.63 1.81 4.69 4.21 6.78 6.58 1.56 1.77 2.71 2.75 4.1 3.31-1.67-3.41-3.86-6.37-6.16-9.25-2.13-2.67-4.71-4.78-7.7-6.39-1.8-.97-3.43-2.15-4.79-3.65-1.88-2.09-3.76-4.17-5.89-6.02.86-.49 1.38.25 1.9.63 1.02.76 1.96 1.63 2.88 2.52 2.04 1.96 4.21 3.76 6.68 5.16.53.3 1.06.6 1.52.99 5.56 4.67 10.22 10.08 13.68 16.49.19.35.37.74.42 1.13.19 1.43 1 2.46 2.07 3.33.6-.28.55-.89.66-1.39.96-4.36 2.89-8.21 5.85-11.57 3.97-4.51 7.27-9.48 10.05-14.82.65-1.25 1.42-2.44 2.36-3.51 1.85-2.08 3.6-1.81 4.79.75.89 1.91 1.31 3.96 1.7 6 .3 1.59.67 3.16 1.26 4.66 1.88 4.73 2.05 9.55.86 14.45-.5 2.09-1.1 4.16-1.64 6.24-.1.37-.31.82.18 1.06.49.24.72-.22.95-.51.75-.95 1.46-1.93 2.19-2.89 2.61-3.45 5.62-6.5 8.95-9.25 1.14-.94 2.34-1.82 3.71-2.41 1.68-.72 2.74-.37 3.8 1.15 1.01 1.46 1.29 3.16 1.31 4.81.09 7.25.59 14.5.13 21.75-.15 2.28-.52 4.54-1 6.78-.07.33-.17.65-.2.99-.04.43-.38.99.24 1.22.44.16.69-.31.93-.6 3.35-4.11 7.72-6.83 12.42-9.09.85-.41 1.73-.75 2.62-1.04 3.96-1.29 7.93-2.57 11.9-3.82 1.17-.37 2.43-.71 3.42.3 1.03 1.06.37 2.27 0 3.4a5.5 5.5 0 01-.61 1.27c-2.32 3.5-3.83 7.4-5.56 11.18a51.31 51.31 0 01-2.54 4.81c-.3.49-.75.94-.72 1.56.51.52.89.09 1.27-.09 4.4-2.05 8.91-3.77 13.65-4.86 1.19-.27 2.39-.42 3.6-.27 1.55.19 1.91 1.08 1.03 2.39-.57.85-1.36 1.5-2.19 2.06-3.22 2.2-6.44 4.37-9.7 6.51-1.41.93-2.99 1.52-4.62 1.96-.69.19-1.37.43-2.08.66.34.61.86.43 1.29.48 4 .49 8.02.71 12.05.74 6.5.04 12.61 1.72 18.52 4.3 1.49.65 2.86 1.51 4.14 2.49 2.83 2.16 2.6 4.65-.51 6.28-1.57.83-3.28 1.22-4.98 1.56-4.69.94-8.99 2.7-12.78 5.66-5.62 4.39-12.11 6.52-19.09 7.52-4.73.68-9.49.97-14.25 1.27-5.6.36-10.8 1.9-15.73 4.58a91.643 91.643 0 00-17.25 12.13c.17.71.89.97 1.25 1.53.87 1.34.63 2.61-.75 3.42-.82.48-1.75.69-2.67.9-1.27.29-2.43.8-3.43 1.63-3.38 2.81-6.56 5.76-8.11 10.07-.62 1.72-1.5 3.33-3.2 4.27-.61.34-.67.95-.89 1.51-3.5 9.12-5.14 18.64-5.97 28.31-1.91 22.36-3.73 44.72-3.68 67.19.04 18.49.96 36.94 3.08 55.31.68 5.88 1.84 11.68 3.37 17.41 3.11 11.64 6.67 23.13 10.82 34.44.2.54.19 1.22.88 1.53.44-.61.21-1.29.19-1.93-.16-7.79-.62-15.57-.32-23.37.8-20.77 5.25-40.74 13.09-59.96 2.84-6.96 6.79-13.28 11.21-19.31.73-1 1.15-1.87.55-3.1-.7-1.45-.27-2.9.37-4.27 1.01-2.2 2.06-4.38 3.04-6.59.47-1.04.85-2.12 1.23-3.2.49-1.37.57-2.74.05-4.14-.55-1.47-.75-3-.56-4.56.08-.71-.13-1.31-.32-1.96-4.12-13.46-4.79-26.9.12-40.35 2.72-7.47 5.59-14.85 10.35-21.33 3.08-4.19 6.62-7.94 10.76-11.11 1.93-1.48 4.04-2.65 6.19-3.74.69-.35 1.42-.66 2.07-.16.63.49.62 1.3.5 2.06-.23 1.42-.96 2.64-1.62 3.89-.36.34-.67.7-.49 1.25-.71.33-.98.9-1.07 1.79.87-.35 1.24-.86 1.49-1.48.28.04.38-.15.48-.35l.03.03zm25.57 45.63l.09-.12-.08.13-.05.11.04-.12zm.91-1.13c.09-.17.17-.34.26-.51.09-.17.17-.33.26-.5l.27-.51c.04-.05.09-.09.12-.14.01-.03-.02-.08-.03-.12-.02.09-.04.18-.07.27-.24.09-.33.26-.26.51-.24.09-.32.26-.26.5-.23.1-.31.27-.26.51-.18.09-.21.15-.08.16.02 0 .04-.11.06-.18l-.01.01zm-69.95-153.32c-.08.15-.18.34 0 .44.2.11.28-.09.35-.25.12-.15.23-.3.35-.46.13-.1.25-.2.16-.39.12-.26.54-.48.1-.81-.26-.19-.32.11-.48.19-.25.22-.32.5-.27.82l-.21.45v.01zm40.97 111.27c.07-.09.42-.04.13-.29-.04.1-.07.2-.11.3-.15.13-.16.19-.04.16.02 0 .01-.11.02-.17zm30.7 38.11c.24-.08.32-.26.27-.5.14-.08.4-.13.08-.33-.03.11-.05.22-.08.33-.2.11-.28.28-.26.51-.09.17-.18.34-.26.51l-.2.45c.08.01.15.02.23.04l-.06-.5c.25-.09.32-.26.27-.51h.01zm1.63-3.34c.08-.17.17-.34.25-.51.08-.17.16-.34.25-.51.32-.48.63-.97.67-1.57-.03-.16.13-.35-.14-.49-.28-.14-.32.12-.47.19-.41.49-.48 1.09-.48 1.7-.06.17-.13.33-.19.5-.06.19-.12.37-.17.56l-.18.54c-.26.28-.31.58-.11.91-.22.05-.38.12-.11.34l.12-.33c.29-.21.31-.5.26-.82.1-.17.2-.33.3-.5v-.01zm-69.5-91.68c-.17.13-.56.25-.29.49.2.18.43-.12.51-.38.1-.11.29-.24.1-.36-.17-.11-.27.09-.32.25zm-67.26 139.98c-.11-.21-.26-.34-.51-.26-.12-.13.01-.6-.39-.33-.06.04.2.28.4.3.11.2.25.34.51.27.07.35.22.63.62.67.1.09.13.44.34.08-.11-.04-.21-.07-.32-.11-.09-.34-.24-.6-.64-.62h-.01zm72.4-147.92c-.13.11-.26.23-.4.34.08.05.2.14.22.13.12-.12.22-.26.32-.39.1-.12.42-.23.04-.39-.01 0-.12.2-.18.31zm-174 166.56c.93-1.17 1.33-2.62 2.07-3.9 2.76-4.77 6.86-7.93 12.08-9.39 4.18-1.17 8.48-1.97 12.82-2.44 5.19-.56 10.32-.51 15.22 1.66.22.1.52.02.78.03.12.11-.01.52.37.32-.13-.1-.26-.19-.39-.29-.18-.47-.59-.71-.95-1.01-2.32-1.93-4.85-3.58-7.26-5.4-3.4-2.57-7.12-2.96-11.05-1.81-2.89.85-5.75 1.78-8.52 3.02-4.87 2.18-8.69 5.46-11.22 10.19-.79 1.48-1.58 2.95-2.48 4.37-.87 1.39-1.74 2.88-1.44 4.67-.04.03-.1.05-.13.1-.02.02 0 .08 0 .12.03-.08.06-.15.09-.23l.01-.01zm249.94-82.78c-.74.39-1.2 1.07-1.7 1.69-3.68 4.52-6.59 9.5-8.55 14.99-2.1 5.91-5.33 11.14-9.36 15.89-.82.97-1.93 1.73-2.6 2.78-4.41 6.85-10.27 12.21-16.88 16.83-4.46 3.11-9.03 6.06-14.09 8.16-.06.02-.04.23-.06.38 1.55.14 3.02.9 4.66.1 2.71-1.32 5.56-2.37 8.07-4.08 12.92-8.8 23.23-19.88 29.76-34.23 2.31-5.08 4.87-10.04 7.66-14.88 1.37-2.38 2.65-4.82 3.38-7.49.05-.11.17-.3.14-.32-.22-.19-.33 0-.44.17l.01.01zm-58.36 54.26c.49-.35 1-.67 1.47-1.04.64-.51 1.3-1.01 2.17-.89.76.11.53 1.11 1.21 1.71.62-1.64 1.19-3.06 1.7-4.5 2.18-6.15 4.48-12.25 7.67-17.96 1.41-2.52 2.96-4.96 4.43-7.45 2.15-3.65 4.2-7.36 6.43-10.95 4.45-7.15 9.59-13.77 15.38-19.9 1.88-1.99 3.05-4.39 2.72-7.31-.14-1.28.08-2.54.62-3.74.31-.67.55-1.37.8-2.07.28-.76.21-1.52-.39-2.05-.6-.52-1.38-.46-2.1-.16-.31.13-.58.34-.87.51-2.2 1.33-4.15 2.95-5.97 4.76-1.17 1.16-2.12 2.37-2.4 4.07-.18 1.12-.63 2.19-.99 3.28-1.15 3.45-2.66 6.75-4.12 10.07-2.68 6.09-5.1 12.29-8.32 18.14-2.82 5.12-5.55 10.3-8.35 15.43-1.77 3.25-3.52 6.5-5.4 9.69-1.57 2.66-3.07 5.36-5.1 7.72-.66.77-.86 1.63-.66 2.61-.15.05-.2.13-.13.24l.17-.22.03.01zm-101.24-14.9c.63-.33 1.02.14 1.4.48 7.28 6.45 12.66 14.02 14.06 23.93.2 1.43.77 2.61 1.88 3.65a90.28 90.28 0 016.96 7.28c1.13 1.31 2.3 2.58 3.71 4.15-.16-5.56-.44-10.72-1.21-15.84 2.41 5.19 2.92 10.74 2.98 16.32.02 1.46.42 2.39 1.58 3.29 0-1.55-.09-2.96.02-4.36.41-5.11.33-10.17-.71-15.23-1.56-7.63-5.15-13.89-11.51-18.53-3.3-2.4-6.96-4.02-10.74-5.44-6.1-2.3-12.33-3.09-18.78-1.65-5.36 1.2-10.79 2.1-16.26 2.67-.4.04-.8.07-1.2.11-.41.05-.84.08-1.28.46.39.16.57.26.75.31 4.66 1.09 8.5 3.59 11.79 6.99.55.57 1.16.86 1.89 1.04 10.13 2.58 19.1 7.42 27.17 14.02.44.36.79.93 1.44.93.31-.25.18-.51.14-.76-.42-2.61-1.45-5.02-2.42-7.45-1.91-4.79-4.6-9.1-8.05-12.91-1.12-1.24-2.38-2.35-3.58-3.51l-.02.03-.01.02zm56.19-85.31c-.15-.07-.3-.15-.45-.22-.03-.76.28-1.44.47-2.16.68-2.6 1.3-5.22 1.69-7.88.19-1.27.28-2.54.08-3.81-.06-.39-.03-.86-.5-1-.46-.14-.77.21-1.02.5-1.62 2-3.01 4.11-3.2 6.8-.12 1.61-.33 3.21-.55 4.8-.04.32.06.88-.71.84-.33-2.3-.32-4.63-.19-6.96.1-1.82.03-3.62-.24-5.42-.18-1.17-.74-2.15-1.34-3.13-.17-.28-.42-.54-.81-.45-.38.09-.49.42-.6.74-.2.59-.1 1.19-.04 1.8.22 2.07.89 4.14.55 6.2-.49 2.99-.17 5.79.75 8.67.6 1.86.64 3.91.08 5.98-.52-.56-.38-1.12-.4-1.64-.13-4.37-2.21-7.96-4.6-11.42-.67-.98-1.81-1.41-2.16-.93-.52.73-.35 1.54.07 2.27.51.87 1.09 1.69 1.62 2.55 2.24 3.62 3.25 7.49 2.38 11.74-.34 1.65-.59 3.31-.93 4.95-.43 2.07.08 3.91 1.5 5.4.93.97 1.01 1.92.67 3.1-.88 3.03-1.62 6.11-2.56 9.12-2.63 8.44-4.01 17.11-5.11 25.87-2.97 23.74-3.12 47.58-2.58 71.44.26 11.35 1.5 22.65 2.25 33.97.53 7.92 1.55 15.77 3.13 23.55 1.15 5.67 2.51 11.28 3.98 16.87 3.02 11.46 6.79 22.66 11.37 33.59.99 2.38 1.92 4.82 3.55 6.97.31-1.18-.04-2.23-.15-3.28-.47-4.16-.73-8.27-2.66-12.24-2.85-5.85-4.88-12.09-6.75-18.34-1.73-5.8-3.4-11.62-5.04-17.44-1.73-6.15-3.1-12.39-3.84-18.74-2.21-18.9-3.16-37.88-3.14-56.9 0-13.25.77-26.46 1.86-39.66.78-9.51 1.09-19.05 2.13-28.54.96-8.73 2.52-17.29 5.75-25.48.24-.62.28-1.46.92-1.73 2.26-.97 2.88-3.06 3.62-5.07.61-1.65 1.27-3.27 2.43-4.61 1.54-1.78 3.19-3.45 4.99-4.98 1.67-1.42 3.51-2.46 5.69-2.88.52-.1 1.04-.27 1.53-.48.48-.21.48-.62.18-.98a2.66 2.66 0 00-1.93-.96c-2.99-.17-5.62.88-7.59 3-1.95 2.1-3.8 4.36-5.25 6.88-.21.36-.35.83-1.03.84 1.31-3.58 3.37-6.56 5.48-9.5 1.37-1.91 2.86-3.74 3.92-5.86.39-.78.79-1.56.95-2.43.1-.52.26-1.1-.29-1.47-.51-.34-1.05-.14-1.53.11-.97.5-1.77 1.21-2.48 2.03-1.6 1.83-3.02 3.77-3.91 6.05l-.01-.04zm31.35 305.22c-.17 2.16-.19 4.35-.82 6.46-.65-.14-.72-.6-.73-1.09-.03-1.01-.12-2.02-.06-3.02.07-1.33-.34-2.44-1.05-3.57-1.89-3.01-3.65-6.12-4.96-9.44-1.73-4.38-3.13-8.87-4.72-13.31-4.64-13-7.54-26.37-8.36-40.13-.56-9.32-.51-18.67-.84-28-.5-13.92.83-27.66 4.04-41.21 1.96-8.25 4.66-16.28 7.14-24.38 2.6-8.5 6.29-16.44 11.9-23.4.5-.62.82-1.45 1.71-1.63 2.72-.56 4.23-2.46 5.27-4.82.95-2.16 2.46-3.83 4.31-5.23 1.68-1.27 3.56-2.13 5.58-2.73.72-.21 1.64-.21 1.97-1.15-2.06-1.17-2.39-1.13-4.05.34-.99.87-1.88 1.87-3.34 2.54.33-.9.88-1.3 1.32-1.77 1.78-1.88 3.13-4.04 4.14-6.4.27-.63.9-1.57.04-1.96-.91-.4-1.08.74-1.38 1.34-1.62 3.27-3.69 6.25-6.05 9.02-.34.39-.59 1.07-1.53.87 2.27-4.54 5.8-8.26 7.15-13.17-3.75 3.13-6.35 7.22-9.43 11.43-.23-1.28.24-1.88.53-2.51 1.37-2.99 2.78-5.97 4.13-8.98.27-.61.71-1.25.38-2.16-1.86 1.08-2.65 2.82-3.63 4.37-1.37 2.18-2.1 4.65-3.13 6.98-.21.48-.27 1.1-1.16 1.41.77-2.7 2.1-5 1.96-7.61-.13-2.49-.18-5.06-2.42-7.09-.86 2.05-.38 3.89-.07 5.72.49 2.93.2 5.74-.99 8.48-.71 1.62-1.73 3.03-2.79 4.42-1.05 1.39-1.53 2.86-.45 4.46.88 1.29.67 2.38-.44 3.39-.19.18-.32.43-.47.65-4.24 6.49-7.97 13.22-10.86 20.44-7.67 19.17-12.02 39.04-12.59 59.67-.45 16.31-.06 32.61 2.18 48.82.87 6.33 1.91 12.63 3.42 18.82 1.7 6.99 3.8 13.88 6.13 20.69.93 2.73 1.88 5.48 3.09 8.1 2.91 6.27 6 12.46 9 18.7 2.38 4.96 4.97 9.83 7.1 14.92 1.12 2.66 2.27 5.31 3.53 7.91 2.76 5.69 6.34 10.92 9.23 16.53.52 1.01 1.41 1.62 2.33 2.16.9.53 2.8.03 3.71-.86.75-.73.8-1.66.07-2.96-.7-1.24-1.66-2.3-2.72-3.23-3.38-2.97-5.92-6.56-8.13-10.45-2.65-4.67-5.62-9.18-7.27-14.35-.64-1.99-1.53-3.87-2.5-5.72-.93-1.79-1.83-3.6-2.23-5.6-.73-3.61-1.36-7.23-1.8-10.89.27-.52.18-.98-.25-1.41-.24.52-.31 1.03-.12 1.55l-.02.04zm-27.54-313.85c.89-.49 1.67-1.05 2.12-2.05 1-2.22 2.43-4.17 3.97-6.05 6.98-8.55 13.28-17.59 19.13-26.95 3.81-6.09 6.44-12.67 8.12-19.67 2.43-10.1 2.31-20.39 2.53-30.66.02-1.07-.13-2.15-.48-3.18-1.23-3.67-2.33-3.18-4.65-1.88-.82.46-1.58 1.02-2.33 1.59a45.32 45.32 0 00-7.83 7.52c-2.9 3.53-5.55 7.26-8.25 10.95-4.21 5.76-7.16 12.13-9.47 18.85-2.27 6.62-3.95 13.41-5.8 20.15-.53 1.95-.85 3.94-.92 5.97-.17 5.31.75 10.59.62 15.9-.01.39.08.61.53.64 2.2.16 2.61 1.75 2.83 3.53.21 1.77-.24 3.47-.42 5.2-.08.18-.18.38.12.45.04 0 .12-.19.18-.29v-.02zm54.29 53.89l-.03-.02c.31.44-.05.74-.24 1.07-3.17 5.49-5.82 11.21-7.71 17.27-1.44 4.62-2.92 9.23-4.48 13.81-1.79 5.23-3.29 10.52-3.85 16.04-.1 1.03-.33 2.05-.54 3.34 1.06-.44 1.84-1.12 2.7-.81 1 .36 1.26-.22 1.68-.87 3.14-4.94 6.01-10.03 8.76-15.19 6.24-11.69 12.45-23.38 18.11-35.37 1.76-3.73 3.2-7.55 3.94-11.62.64-3.5 1.21-7.02 1.79-10.54.11-.66.11-1.34.08-2.01-.1-1.95-.84-2.51-2.72-2.15-1.07.21-2 .77-2.97 1.22-7.2 3.35-12.93 8.34-16.95 15.24-.14.24-.21.64-.89.44 1.24-2.86 1.89-5.87 3.2-8.67 1.32-2.82 3.3-5.32 4.36-8.34-1.02-.32-1.49.22-2.02.59-1.93 1.35-3.73 2.86-5.53 4.38-8.06 6.78-14.35 14.81-18.17 24.75-4.48 11.67-7.15 23.51-4.61 36.07.61 3.03 1.19 6.07 2.26 8.98.14.37.22.8.77.76.69-.05.64-.58.64-1.04.02-1.21-.06-2.42.02-3.62.27-4.45 1.37-8.75 2.45-13.06 1.97-7.85 4.48-15.5 8.41-22.62.24-.43.39-.94.95-1.29.18.88-.24 1.45-.46 2.04-1.64 4.55-3.53 9.02-4.95 13.65-2.59 8.44-4.76 16.95-4.89 25.86-.03 2.29 1.17 3.96 1.87 5.94.66-.36.7-.77.77-1.17.33-1.85.71-3.7.98-5.56 1.18-8.07 3.17-15.94 5.85-23.65 2.17-6.23 4.51-12.39 7.83-18.12 1.13-1.96 2.16-4 3.6-5.76l-.01.03zm-133.77 48.51c.15.08.33.17.43-.02.09-.19-.08-.29-.24-.36-.45-.4-.88-.82-1.35-1.2-3.02-2.44-6.27-4.4-10.21-4.94-.8-.11-1.59-.22-2.4.01-4.01 1.16-7.95 2.47-11.65 4.45-6.05 3.22-11.69 7.12-17.54 10.66-.86.52-1.8 1.01-2.54 2.17 4.65-.33 8.39 1.46 12.02 3.6 1.45.85 2.92 1.68 4.28 2.66 1.57 1.14 3.32 2.15 4.21 3.97 1.56 3.2 3.32 6.29 5.24 9.28 1.48 2.31 2.94 4.66 5.06 6.49 4.52 3.92 9.6 6.89 15.21 8.93 4.39 1.6 8.92 2.46 13.61 2.5 8.31.07 16.01-2.53 23.6-5.49 3.29-1.28 6.58-2.31 10.12-2.42.45-.01.96.14 1.27-.47-1.58-2.54-3.36-4.97-5.18-7.38-.78-1.04-1.69-1.32-2.95-1.24-6.27.41-12.11 2.37-17.73 4.99-5.18 2.42-10.41 4.67-15.93 6.22-.82.23-1.65.44-2.84.76.95-.83 1.78-.91 2.52-1.18 1.26-.46 2.55-.84 3.81-1.3 4.36-1.6 8.38-3.92 12.48-6.07 4.44-2.32 9.12-3.9 14.04-4.82 1.09-.2 2.29 0 3.26-.61.1-.55-.18-.84-.45-1.14-4-4.54-8.09-8.98-12.63-13-1.07-.95-2.21-1.47-3.61-1.48-.67 0-1.34-.01-2.01 0-4.91.1-9.24 2.15-13.6 4.08-3.63 1.6-6.96 3.75-10.48 5.56-1.81.93-3.57 2.05-5.71 2.16 1.09-.65 2.33-.94 3.44-1.57 2.69-1.52 5.31-3.14 7.89-4.84 5.75-3.79 11.9-6.46 18.89-6.8.3-.01.67 0 .89-.54-.6-.44-1.23-.93-1.88-1.38-2.48-1.76-5.19-3.08-8-4.21-10.56-4.26-21.37-6.27-32.69-3.6-5.62 1.32-11.27 2.52-16.62 4.8-.3.13-.64.42-1.09.1.52-.6 1.18-.77 1.79-.96 5.18-1.67 10.37-3.32 15.56-4.98 5.86-1.88 11.84-2.24 17.92-1.46.6.08 1.19.25 1.8.07h-.01zm102.77 132.76c1.73.79 2.66 2.4 3.8 3.78a25.19 25.19 0 015.19 10.57c.81 3.6 1.32 7.26 2 10.89.12.66.11 1.45.71 1.9.68-.23.7-.75.87-1.17 1.45-3.76 2.96-7.51 4.74-11.12 4.11-8.31 8.25-16.61 12.97-24.61 4.44-7.54 9.46-14.67 15.04-21.41.28-.34.47-.86 1.38-.64-.24.26-.43.45-.6.67-3.48 4.45-6.64 9.11-9.58 13.93-5.08 8.32-10.11 16.65-14.52 25.35-.78 1.55-1.58 3.11-1.98 4.82-.03.13-.13.33-.09.37.22.19.35.01.45-.18 2.19-1.67 4.35-3.37 6.57-4.99 4.22-3.07 8.81-5.41 13.9-6.65.64-.16 1.32-.55 2.14-.01-3.11 1.3-6.1 2.51-8.94 4.03-4.16 2.23-7.85 5.15-11.71 7.83-2.73 1.91-4.66 4.25-5.78 7.48-2.31 6.66-4.96 13.21-6.55 20.11-.11.49-.4.98-.02 1.7 4.49-3.76 9.59-6.37 14.81-8.82 5.31-2.49 14.31-4.96 16.46-4.2-1.97.58-3.91.8-5.73 1.53-4.99 1.99-9.94 4.06-14.82 6.29-3.67 1.68-7.23 3.53-10.31 6.21-.79.69-1.36 1.41-1.53 2.49-.48 2.99-1.06 5.95-1.57 8.93-.07.41-.37.91.24 1.29.2-.14.43-.27.62-.44 2.6-2.3 5.57-3.92 8.84-5.09 3.83-1.37 7.8-1.95 11.78-2.58 3.65-.58 7.32-1.2 10.54-3.17 3.76-2.3 6.94-5.1 7.89-9.7.44-2.11.95-4.2 1.34-6.31 1.86-10.04 1.01-19.93-1.79-29.69-.78-2.7-.98-5.41-.41-8.16.81-3.91.97-7.87.82-11.83-.21-5.67 1.72-10.68 4.6-15.41.1-.17.25-.31.6-.2 0 .74-.49 1.31-.83 1.9-2.38 4.22-3.45 8.7-2.89 13.56.52 4.44.25 8.84-.71 13.22-.51 2.31-.59 4.67-.17 7.01.38 2.12 1.09 4.17 1.83 6.18 1.58 4.32 1.95 8.76 1.6 13.3-.2 2.54-.41 5.08-.61 7.62-.09.15-.16.36.02.44.21.1.24-.13.3-.28 1.89-5.2 3.28-10.5 3.27-16.1 0-3.23-.36-6.43-.56-9.65-.33-5.36-.94-10.71-.37-16.09.33-3.09.13-6.17-.39-9.23-.6-3.53-.3-6.96.99-10.3.6-1.57 1.21-3.13 1.8-4.71.15-.41.55-.8.14-1.37-1.38-.08-2.72.08-4.01.79-1.3.71-2.6 1.4-3.78 2.3-4.58 3.49-9.63 6.14-15.05 8-5.24 1.79-10.19 4.16-14.93 6.98-3.98 2.37-8.11 4.47-11.78 7.35-5.37 4.21-9.52 9.38-11.57 15.89-2.9 9.2-3.93 18.67-2.37 28.26.69 4.24 1.89 8.39 4.15 12.14 1.88 3.11 3.5 6.34 4.91 9.69.95 2.26 1.73 4.59 2.58 6.88.41-.14.38-.45.44-.69 1.99-8.5 3.33-17.16 6.18-25.45.23-.66.23-1.32.05-1.98-.53-2.08-.88-4.21-1.53-6.26-.69-2.18-1.11-4.43-1.42-6.69-.74-5.45-2.58-10.41-6.26-14.59-.52-.59-1.27-1.03-1.41-1.91h.01zm-19.73-227.46c1.46-.38 2.56-.86 3.69-.66 1.15.21 1.88-.26 2.66-.98 3.8-3.51 7.7-6.89 12.16-9.58 6.23-3.75 12.77-6.57 20.09-7.31 4.07-.41 8.15-.76 12.23-1.18 8.26-.85 16.1-2.96 22.95-7.92 3.81-2.76 8.09-4.47 12.63-5.59 1.24-.31 2.47-.66 3.62-1.22 1.89-.93 2.09-2.15.53-3.57-1.14-1.05-2.44-1.89-3.84-2.57-5.77-2.78-11.79-4.52-18.25-4.35-5.17.13-10.33.16-15.5-.2-5.73-.4-11.07.99-16.07 3.68-4.2 2.26-8.31 4.67-12.48 6.97-2.54 1.4-4.85 3.1-7.1 4.93-5.46 4.43-9.86 9.86-14.42 15.15a14.467 14.467 0 00-2.78 4.85c2.67.91 3.22 1.96 2.42 4.57-.22.7-.51 1.39-.85 2.04-.45.89-.98 1.73-1.69 2.96v-.02zm-10.18-12.66c1.79-1.72 2.1-3.69 1.83-6.05-.83-7.18-.76-14.36.65-21.47.68-3.43 1.49-6.83 2.26-10.24.19-.85.42-1.7.39-2.58-.07-2.48-.15-4.97-.44-7.44-.65-5.38-2.4-10.46-4.03-15.59-1.88-5.9-5-10.83-10.35-14.17-.06-.04-.11-.08-.16-.12-1.9-1.31-3.52-2.9-4.96-4.69-1.77-2.2-3.69-4.27-5.94-6-.97-.74-2.01-1.36-3.18-1.71-1.04-.31-1.56.04-1.66 1.1-.1 1.01.06 2.01.35 2.99 2.25 7.37 2.74 14.9 2.23 22.54-.15 2.28-.19 4.57-.19 6.85 0 6.24 1 12.32 3.45 18.09 2.14 5.02 4.83 9.75 7.85 14.3 3.4 5.13 6.34 10.46 7.64 16.56.1.48.21.87.78 1.04 1.61.49 2.14 1.91 2.74 3.27.46 1.05.43 2.22.76 3.34l-.02-.02zm54.15 117.41c.24 0 .39.04.5-.01 5.11-2.29 9.85-5.17 14.24-8.66 14.66-11.69 23.01-27.04 26.34-45.3.46-2.52 1.05-4.99 1.95-7.39.71-1.89 1.42-3.77 2.08-5.68.3-.89.54-1.81.66-2.73.08-.63.2-1.41-.52-1.82-.6-.34-1.17 0-1.7.3-1.23.69-2.37 1.52-3.47 2.41-4.35 3.55-7.96 7.78-11.33 12.25-5.27 6.99-9.6 14.58-14.07 22.09-3.75 6.31-7.32 12.69-10.06 19.51-1.5 3.73-2.8 7.57-5.07 10.96-.18.27-.46.63-.16.91.98.91.72 2.06.62 3.17l-.01-.01zm-50.62-176.98c.47-.27.49-.54.53-.8.69-4.48 2.08-8.73 3.93-12.87 1.84-4.1 3.68-8.22 4.6-12.67.03-.16.23-.29.46-.57.27.95-.03 1.72-.19 2.46-.6 2.83-1.56 5.56-2.56 8.27-2.17 5.94-4.18 11.92-5.03 18.22-.16 1.2-.37 2.38-.07 3.6.54 2.22.98 4.45 1.04 6.75.01.42-.06.96.57 1.19.69-.35.67-1.11.88-1.7 1.87-5.14 4.15-10.08 7.52-14.42 2.63-3.39 4.48-7.16 5.76-11.22 2.13-6.75 2.86-13.53.12-20.32-.61-1.51-.79-3.12-1.08-4.7-.27-1.45-.44-2.92-.71-4.37-.16-.86-.35-1.72-.87-2.45-.62-.87-1.21-1-2.02-.33-.56.47-1.05 1.04-1.5 1.62-1.07 1.39-1.86 2.95-2.65 4.51-2.23 4.38-4.55 8.71-7.57 12.59-3.08 3.95-4.99 8.4-6.35 13.16-.26.89-.27 1.7.21 2.51 1.1 1.85 1.93 3.82 2.79 5.79.81 1.85 1.37 3.78 2.18 5.72l.01.03zm-35.04 16.8c6.34 5.11 10.82 11.54 15.13 18.12 4.31 6.59 7.82 13.52 9.67 21.49 1.25-1.93 1.09-3.52.48-5.25-1.77-5.04-4.25-9.71-7.11-14.2-3-4.71-5.64-9.62-7.57-14.88-1.16-3.16-2.19-6.36-2.67-9.7-.22-1.52-.76-2.7-2.21-3.57-2.71-1.62-5.37-3.35-7.88-5.25-7.18-5.43-15.44-8.03-24.15-9.5-1.72-.29-3.47-.42-5.22-.19-.45.06-1 .13-1.15.66-.13.5.19.88.56 1.21.87.76 1.87 1.31 2.89 1.82 4.86 2.38 8.95 5.67 12.08 10.12 4.39 6.25 9.69 11.67 15.33 16.78 3.93 3.56 7.81 7.19 11.47 11.04 6.76 7.12 11.63 15.25 13.67 24.94.19.9.28 1.87.91 2.66.11-.68.14-1.35 0-1.98-1.15-5.41-2.94-10.62-5.17-15.67-1.93-4.37-4.64-8.32-7.05-12.43-3.28-5.58-6.9-10.9-11.7-15.32-.18-.17-.45-.32-.35-.89l.04-.01zm57.21 25.6c.34.12.43.18.46.15.28-.18.57-.35.81-.57 3.35-3.14 7.11-5.72 11.03-8.06 4.19-2.51 8.25-5.32 12.96-6.82 3.17-1.01 5.37-3.15 7.43-5.58 3.38-4.02 6.66-8.09 8.36-13.18 1.24-3.72 2.96-7.19 5.5-10.22.42-.5.73-1.15.93-1.77.35-1.07-.21-1.75-1.31-1.61-.66.08-1.3.31-1.94.53-3.36 1.16-6.58 2.69-9.87 4-4.44 1.77-8.69 3.92-12.44 6.9-3.35 2.66-6.18 5.81-7.69 9.89-2.1 5.7-4.91 11.03-8.05 16.21-.42.7-1.12 1.34-.86 2.66 4.48-3.6 8.56-7.34 12.81-10.87 4.31-3.57 8.47-7.34 13.38-10.14-3.65 3.02-7.19 6.17-10.72 9.32-3.51 3.13-6.98 6.28-10.44 9.47-3.45 3.17-7.31 5.91-10.35 9.7v-.01zm30.22-16.94c5.75.01 10.67-1.48 15.1-4.48 2.78-1.88 5.62-3.63 8.63-5.11.96-.47 1.84-1.1 2.71-1.71.35-.24.82-.54.5-1.18-1.33-.02-2.62.26-3.9.64-5.86 1.72-11.56 3.87-17.02 6.62-.55.28-1.04.58-1.46 1.03-1.31 1.43-2.78 2.7-4.57 4.19h.01zm-72.17 189.88c.17-1.63.18-2.68-.6-3.68-4.1-5.31-8.1-10.7-12.42-15.84-3.16-3.76-6.43-7.41-10.18-10.58-.33-.28-.58-.77-1.48-.57 9.25 9.37 18.22 18.76 24.68 30.68v-.01zm50.47 159.98c-.02.11-.07.23-.04.34.03.1.13.19.2.28.02-.11.07-.24.05-.34-.03-.1-.13-.18-.2-.28h-.01zm-27.68-361.04c-.02.11-.05.23-.05.36 0 .03.11.06.17.1.02-.12.05-.25.05-.37 0-.03-.11-.05-.17-.08v-.01zm34.95 313.16s-.07.1-.06.14c0 .04.07.07.12.1.02-.05.07-.1.06-.14 0-.04-.07-.07-.12-.1zm39.03.05s-.09-.06-.13-.1c-.02.05-.07.1-.06.14 0 .04.08.07.12.1.02-.05.05-.1.07-.15v.01z" fill="#657163"/><path d="M192.602 327.457c3.96 7.29 5.36 15.02 3.81 23.23.53-8.05-2.37-15.5-3.81-23.23zM228.285 309.865c-.16-.02-.24-.11-.17-.25.05-.1.15-.22.25-.24.14-.03.24.11.18.25-.04.1-.17.16-.26.24zM174.644 346.857c-.06 0-.16-.02-.16-.03 0-.12.05-.1.15.06l.01-.03z" fill="#657163"/><path d="M175.135 347.148c-.27.09-.42-.04-.5-.28l-.01.03c.26-.1.42 0 .52.24v.01h-.01zM65.835 218.196c-.87.66-1.93.41-2.86.67-3.32.92-6.35 2.49-9.41 4-3.24 1.6-6.25 3.67-9.8 4.58-.61.16-1.24.56-1.96-.12 3.17-.67 5.79-2.27 8.32-4.03 4.38-3.05 9.23-4.81 14.53-5.34.39-.04.8-.08 1.18.24zM184.314 193.096c-.37-.73-.05-1.45.06-2.17 1.86-12.6 6.38-24.22 12.92-35.09.66-1.09 1.34-2.17 2.02-3.25.06-.09.21-.11.32-.16.28.11.18.34.1.48-3.44 6.01-5.94 12.48-8.9 18.72-3.01 6.35-5.07 12.99-6.1 19.95-.08.52-.04 1.08-.46 1.5l.04.02zM201.523 159.275c.11-1.14.62-2.11 1.27-3.13.11 1.26-.12 1.78-1.32 3.11l.05.02z" fill="#657163"/><path d="M201.484 159.258c.17.25.17.49-.04.7-.04.04-.19-.01-.28-.02.05-.26.09-.53.37-.66l-.05-.02zM200.404 151.586c-.07.14-.1.36-.33.26-.05-.02-.07-.21-.04-.3.04-.09.16-.18.25-.2.18-.02.22.09.12.24zM184.272 193.074c0 .19 0 .37-.01.56-.05-.04-.14-.06-.16-.11-.09-.21-.07-.39.21-.42l-.04-.02v-.01zM206.145 165.857c-.03-.21.05-.36.26-.4.04 0 .17.16.16.18-.09.16-.23.29-.44.2l.03.02h-.01zM169.925 48.694c-.53 2.81-2.05 5.22-3.2 7.77-3.36 7.47-7.15 14.74-10.27 22.32-2.62 6.35-4.78 12.83-5.56 19.7-.07.66-.23 1.32-.36 1.98 0 .04-.11.06-.48.26.34-2.67.5-5.18.99-7.63 1.46-7.33 3.6-14.46 6.67-21.29 3.38-7.54 7.15-14.89 11.02-22.2.22-.41.5-.79.75-1.19l.45.27-.01.01z" fill="#657163"/><path d="M169.484 48.427c1.2-2.54 2.67-4.92 4.19-7.47 0 1.39-2.24 5.92-3.74 7.74l-.45-.27zM175.544 38.818c-.28.37-.37.88-.82 1.12-.08-.05-.16-.09-.24-.14.21-.4.41-.8.62-1.2.15.08.29.15.44.23v-.01z" fill="#657163"/><path d="M174.715 39.937c0 .21-.08.44-.3.32-.23-.12-.03-.31.07-.46.08.05.15.09.23.14zM159.645 116.057c5.57-5.59 11.91-10.14 18.72-14.05 10.13-5.82 20.97-9.45 32.71-10.14-9.34 2.11-18.42 4.94-27.18 8.86-8.84 3.96-16.47 9.73-24.25 15.33zM131.562 48.056c.57-.16.75.05.85.3 1.86 4.46 4.001 8.81 5.481 13.43a47.271 47.271 0 012.179 12.07c.29 5.89 1.381 11.59 3.351 17.14.25.69.449 1.4.739 2.33-.96-.41-1.08-1.14-1.31-1.77-1.98-5.53-3.229-11.22-3.989-17.04-.91-6.89-2.63-13.58-5.051-20.09-.779-2.11-1.259-4.31-2.25-6.37zM140.693 62.245c-1.22-2.93-2.44-5.85-3.67-8.78.12-.05.24-.11.37-.16 1.86 2.69 2.85 5.76 3.78 8.86-.16.03-.32.05-.47.08h-.01zM182.692 233.406c-.02-.97.55-1.7 1.02-2.64.07 1.38.04 1.47-1.06 2.63h.04v.01zM185.572 233.576c-.11-.09-.24-.14-.26-.23-.05-.21.07-.37.25-.45.05-.02.24.13.23.16-.05.18-.14.34-.22.52z" fill="#657163"/><path d="M182.662 233.387c.2.25.17.49-.04.7-.04.05-.19 0-.29-.01.04-.27.09-.53.36-.67l-.04-.01.01-.01zM185.824 232.247s.01-.08.02-.13l.23.06c-.03.06-.05.11-.08.17-.05-.03-.11-.06-.17-.1zM147.373 121.215c-.03-.31 0-.6.22-.84.15.07.3.15.45.22-.04.29-.09.59-.34.79-.11-.06-.22-.12-.33-.17zM147.503 121.937c-.04.2.03.56-.29.44-.23-.09-.17-.4.05-.58.08.04.16.09.24.14z" fill="#657163"/><path d="M147.262 121.797c.04-.2.08-.39.11-.59.11.06.22.11.33.17-.07.18-.13.37-.2.55-.08-.05-.16-.09-.24-.14v.01zM233.724 183.796c-3.43 13.12-11.73 22.85-21.74 31.4-.95.81-1.93 1.6-3 2.29.07-.65.63-.89 1.02-1.23 6.86-5.89 12.9-12.49 17.57-20.28 2.36-3.93 3.98-8.2 5.74-12.41.14.08.28.15.42.23h-.01zM91.875 205.867c-.21-.01-.38-.09-.43-.3-.03-.14.12-.24.19-.16.11.13.15.32.22.49l.02-.03zM158.585 17.797c.07.08.15.16.2.26.02.03-.04.13-.08.14-.04.01-.15-.04-.15-.07 0-.11.02-.22.03-.33zM158.555 19.115s-.1-.05-.11-.09c0-.04.04-.1.06-.15.04.03.11.06.12.1 0 .04-.05.09-.08.14h.01zM158.413 20.016s-.11-.06-.12-.1c0-.04.04-.1.07-.15.04.03.12.06.13.11 0 .04-.05.1-.08.14zM112.203 63.126c.49.04.76.35.97.76-.67.14-.83-.31-.95-.8l-.02.04zM112.224 63.084c-.1 0-.19-.02-.29-.03.18-.33.19 0 .27.07l.02-.04zM203.495 60.636c-.09.08-.18.17-.29.23-.03.02-.12-.05-.17-.08.09-.08.18-.17.29-.24.03-.02.11.05.17.08v.01zM225.614 165.005c.19-1.22.96-2.19 1.45-3.27.81-1.76 1.63-3.51 2.51-5.23.35-.69.5-1.55 1.34-1.9.26 1.5-.66 2.65-1.15 3.93-.93 2.43-2.27 4.62-3.89 6.65-.09-.06-.19-.12-.28-.18h.02z" fill="#657163"/><path d="M225.892 165.188c-.07.25-.24.51-.47.34-.27-.2.07-.36.19-.52.09.06.18.12.28.17v.01zM230.922 154.607c.04-.07.08-.15.12-.22 0 .04.03.1.01.12-.03.04-.09.06-.13.1z" fill="#657163"/></svg>