<svg width="202" height="473" fill="none" xmlns="http://www.w3.org/2000/svg"><path d="M119.619 196.942c-1.36.31-2.73.62-4.11.37-2.97-.54-5.44.52-7.71 2.29a20.586 20.586 0 00-4.19 4.4c-.91 1.3-1.99 2.46-3.4 3.21-2.16 1.17-3.41 3.01-4.29 5.23-.54 1.37-1.27 2.66-1.94 3.97-.22.44-.6.7-1.12.63-.6-.07-.69-.59-.78-1.01-.3-1.57-.09-3.13.26-4.66.63-2.72 1.61-5.3 3.45-7.47.61-.71 1.19-1.5 1.32-2.41.3-2.1.8-4.13 2.09-6.15-2.84-.36-5.36-.72-7.88-1.01-10.93-1.26-20.49-5.94-29.5-11.92-3.62-2.4-7.05-5.07-10.26-8.01-.61-.56-1.14-1.12-2.06-1.27-8.87-1.44-15.86-6.23-22.03-12.47-5.92-5.98-9.87-13.09-12.03-21.2-.62-2.32-1.17-4.65-1.72-6.99-.97-4.16-3.23-7.42-6.8-9.74-1.72-1.12-3.2-2.47-4.51-4.06-2.94-3.56-2.99-7.44-1.22-11.43 1.28-2.9 3.37-5.3 5.61-7.51 1.05-1.03 1.4-2.05 1.19-3.44-1.22-7.91.96-14.97 5.37-21.5 2.02-2.98 3.83-6.1 5.82-9.11 3.03-4.59 4.71-9.57 4.67-15.1 0-.15.16-.31.34-.64 1.37.61 1.09 2.4 2.28 3.4.32-.95.56-1.69.81-2.43 2.51-7.44 6.81-13.48 13.7-17.46.95-.55 1.33-1.12 1.11-2.19-.15-.72-.23-1.47-.21-2.2.2-5.66 2.08-10.29 9.65-11.97.63.11 1.24.11 1.66-.5.49.13.87-.02 1.16-.43h.01l.57.66c-1.59.72-3.2 1.42-4.78 2.18-2.13 1.03-3.93 2.47-4.95 4.66-1.22 2.61-1.73 5.38-1.9 8.33 1.91-.18 3.15-.92 4.19-2.46 2.25-3.32 5.26-5.92 8.6-8.13 3.96-2.62 8.33-4.38 12.75-5.99 6.18-2.24 12.47-4.09 19.18-3.02.76.12 1.23-.25 1.7-.69 2.77-2.58 6.15-3.63 9.82-3.99.53-.05 1.13.03 1.57-.76-3.87-2.94-7.95-5.18-13.09-4.87-4.68.28-9.08 1.53-13.27 3.56-2.58 1.26-5.21 1.81-8.01.79-.16-.36-.32-.73-.48-1.09 3.48.6 6.49-.65 9.49-2.22 4.02-2.07 8.32-2.93 12.83-3.12 4.84-.19 11.8 2.44 15.21 6.95 4.96-3.53 10.42-2.37 15.77-1.4 6.7 1.21 12.94 3.74 18.58 7.63.41.28.77.83 1.44.58.33-.65-.03-1.24-.13-1.86-.17-1.02-.18-2.04.12-3.03.3-.99.78-1.91 1.92-2.17 1.16-.27 1.96.35 2.61 1.19.45.58.83 1.22 1.19 1.86 2.58 4.63 6.06 8.34 10.77 10.89 2.87 1.55 5.55 3.38 7 6.48.26.56.73.82 1.23 1.04 7.49 3.21 12.56 9.03 16.58 15.81 7.32 12.32 12.82 25.39 15.59 39.52 1.08 5.54 1.9 11.1 2.26 16.74.36 5.64-.55 11.05-2.35 16.36-1.88 5.53-4.21 10.85-6.95 16-2.1 3.94-4.7 7.54-8.06 10.51-1 .88-1.41 1.84-1.23 3.09 1.05.31 1.71-.34 2.44-.65 4.67-1.94 9.42-1.4 14.19-.52.47.09.98.33 1.09.76.16.62-.33 1.06-.84 1.28-1.02.43-2.06.81-3.11 1.15-1.84.6-3.71 1.11-5.55 1.72-1.51.5-2.91 1.3-3.92 2.53-2.96 3.62-5.41 7.66-8.94 10.59.28.75.66.81 1 .82 3.94.17 7.27 1.87 10.49 3.97 2 1.31 4.15 2.39 6.25 3.55 3.59 1.99 6.41 4.67 7.84 8.62.16.43.35.86.46 1.31.16.73.3 1.53-.58 1.92-.76.33-1.18-.3-1.58-.79-.83-1-1.57-2.07-2.44-3.02-5.78-6.24-12.92-9.02-21.4-8.27-2.4.21-4.4 1.35-6.05 3.06-.77.8-1.45 1.68-2.09 2.58-1.73 2.47-3.77 4.56-6.57 5.73-.08.81.48 1.23.88 1.71 1.58 1.9 2.62 4.05 2.86 6.5.24 2.4 1.36 4.15 3.32 5.47 2.27 1.52 3.97 3.58 5.43 5.86 1.07 1.66 1.8 3.46 1.92 5.43.09 1.5.41 2.91.89 4.32.36 1.05.66 2.12.51 3.26-.09.66-.15 1.31-.93 1.53-.72.21-1.29-.11-1.74-.59-.91-.96-1.34-2.2-1.93-3.35-1.7-3.37-3.94-6.23-7.38-8.03-.71.77-.22 1.43 0 2.07 1.4 4.11 2.79 8.22 4.23 12.31 4.43 12.53 6.89 25.47 8.45 38.63 1.44 12.13 2.11 24.29 2.01 36.51-.07 8.78-.15 17.57-.55 26.33-.56 12.15-2.84 24.04-6.51 35.63-1.84 5.82-3.17 11.76-4.76 17.64-2.02 7.45-5.13 14.45-9 21.1-5.05 8.7-9.89 17.56-16.37 25.35-2.6 3.13-5.16 6.29-7.84 9.35-5 5.71-9.7 11.65-14.05 17.87-2.82 4.04-6.22 7.52-9.75 10.95-2.96 2.87-6.12 5.28-9.82 7.05-1.54.74-2.57 2.07-3.56 3.43-1.41 1.93-3.18 3.34-5.59 3.81-2.26.45-4.31-.33-5.35-2.02-1.11-1.81-.87-4.16.77-5.88a25.72 25.72 0 013.35-2.9c11.37-8.35 22.05-17.43 31.02-28.4 2.45-3 5.14-5.83 7.84-8.61 6.82-7.02 12.36-14.95 16.87-23.61 7.05-13.54 13.46-27.35 18.08-41.93 4.27-13.46 6.77-27.19 7.81-41.3.95-12.93 1.13-25.86 1.11-38.8 0-7.21-.86-14.38-2.33-21.47-2.39-11.49-4.23-23.09-7.11-34.46-1.73-6.8-3.46-13.61-6.33-20.06-.72-1.62-1.5-3.09-3.05-4.16-1.86-1.28-2.9-3.33-4.2-5.12-1.62-2.21-3.49-4.04-6.34-4.6-1.27-.25-1.99-.16-2.51 1.26-1.59 4.31-4.5 7.63-8.35 10.06-2.8 1.77-4.67 4.09-5.59 7.28-.4 1.41-.91 2.91-1.82 4.01-1.88 2.29-2.12 4.82-1.85 7.56.21 2.17-.34 4.23-.94 6.26-.26.89-.48 2.38-1.72 2.14-1.28-.25-.83-1.68-.73-2.61.39-3.54.02-7-.89-10.43-1.55-5.9-1.34-11.7 1.11-17.35.06-.23.26-.56.17-.66-.27-.33-.61-.14-.91.04l-.03.03zm-39.79-14.31c.04.32.21.51.54.56l-.11.13.11-.12c.07.5.39.72.86.78 2.61 2.21 5.14 4.5 7.91 6.52 1.86 1.35 3.86 2.05 6.15 2.2 12.43.8 23.78-2.37 34.14-9.21.36-.23.85-.43.67-1.12-.5-.07-1.04-.18-1.58-.23-6.33-.51-11.42-3.41-15.62-8.04-4.87-5.37-8.98-11.27-12.18-17.78-1.11-2.25-1.83-4.63-1.99-7.16-.31-4.78.98-9.12 3.49-13.17.85-1.38 2.03-2.59 2.51-4.58-5.29.45-9.13-2.21-12.82-5.25a6.29 6.29 0 00-.67-.48c-3.15-2.12-6.51-2.98-10.26-1.82-.78.24-1.68.52-2.43.36-1.57-.34-2.52-.09-3.3 1.48-.59 1.19-1.59 1.03-2.36-.11-.26-.38-.44-.81-.63-1.23-.87-1.91-2.25-2.95-4.41-3.32-4.66-.79-9.1-2.31-13.32-4.51-2.03-1.06-4.17-1.96-6.41-2.58-2.72-.75-5.09-.23-7.16 1.71-2.51 2.36-4.03 5.3-4.89 8.55-1.94 7.41-1.85 14.84.3 22.18 6.93 23.68 23.78 37.02 46.39 44.28 1.12.36 2.36.81 4.05.44-3.38-3.15-6.85-5.64-9.18-9.23.28-.42.73-.41 1.16-.43.03.33.2.53.51.61.03.32.2.52.52.59l.01-.02zm52.3-86.35h.02c-.2.47-.63.43-1.02.47-3.75-.62-6.66 1.1-9.2 3.53-4.12 3.95-6.75 8.77-7.83 14.37-1.38 7.12-4.15 13.57-8.81 19.18-.7.85-1.27 1.82-1.86 2.75-3.83 6.05-4.21 12.25-.88 18.66 2.69 5.18 5.85 10.06 9.27 14.78 1.3 1.8 2.85 3.4 4.48 4.91 3.3 3.07 7.2 4.76 11.7 5.08 2.86.21 5.72.27 8.59.25 8.14-.05 15.5-2.07 21.43-8.07 1.13-1.14 1.77-2.18 1.78-3.78.04-8.59.16-17.18-1.61-25.66.15-.42.13-.95.69-1.12.89 2.24 1.36 4.6 1.77 6.96 1.04 6.03 1.11 12.13 1.15 18.23 0 .59-.3 1.27.57 1.85 2.26-3.96 1.9-8.64 3.49-12.72.22 3.5-.06 6.94-.6 10.84 2.24-1.29 3.66-2.69 4.89-4.28 2.44-3.16 4.34-6.62 5.82-10.34 2.85-7.17 3.66-14.69 3.76-22.29.12-9.58-1.28-18.94-4.58-28.01-2.88-7.93-8.17-13.43-15.72-17.03-4.27-2.03-8.33-1.96-12.48.2-2.25 1.17-4.08 2.85-5.9 4.56-1.92 1.81-4.01 3.27-6.7 3.65-1.28.18-2.21.86-2.89 1.93-.64.88-.08 1.05.66 1.09l.01.01zm41.47 65.35c.85.06 1.26-.52 1.8-1.05 2.63-2.6 4.68-5.66 6.98-8.52.88-1.1 1.94-1.9 3.08-2.69 2.51-1.73 5.44-2.34 8.35-3.26-.68-.76-1.39-.96-2.14-.95-4.01.04-7.83.84-11.38 2.76-.57.31-1.09.73-1.29 1.39-1.27 4.34-3.42 8.3-5.42 12.32-.25.18-.72.27-.25.71l.27-.69v-.02zM38.729 48.462l1.11.08c-2.25 5.21-3.73 10.61-4.03 16.32-.07 1.39.26 2 1.75 2.07 2.45.12 4.64 1.12 6.69 2.45.73.47 1.36 1.21 2.33 1.25.53-1.14.82-2.28 1.49-3.1 1.89-2.34 2.87-4.91 2.71-7.93-.06-1.05.23-2.08 1-2.79.85-.78 1.49-1.56 1.67-2.75.11-.74.77-1.24 1.34-1.72 2.48-2.11 5.08-4.02 8.28-4.9.64-.17 1.26-.37 1.7-.86 2.82-3.12 6.57-4.72 10.33-6.28 2.06-.86 3.96-1.97 5.62-3.49 2.24-2.05 4.15-4.49 6.95-5.86.11-.05.11-.33.15-.49-.39-.4-.86-.27-1.28-.14-2.16.68-4.35.73-6.59.58-3.67-.24-7.18.36-10.48 2.04-1.58.81-3.25 1.07-5.04 1.24-5.97.58-11.47 2.2-14.44 8.19-.37.74-.82 1.45-1.47 2-1.46 1.23-2.43 1.01-3.11-.77-.3-.77-.48-1.59-.72-2.39-.13-.4-.25-.8-.38-1.2.32-2.31.08-4.68 1.02-7.12-11.92 6.6-21.37 23.12-17.47 36.31 1.4-.71 2.78-1.46 4.33-1.7 1.01-.16 1.36-.66 1.38-1.67.12-6.24 2.52-11.83 5.11-17.36l.05-.01zm7.2 121.51c.4.28.84.73 1.26.2.19-.24-.24-.56-.52-.76-.42-.6-.83-1.22-1.27-1.81-7.41-10.01-13.44-20.58-13.4-33.57 0-.93-.52-1.24-1.28-1.52-7.04-2.5-12.47-7.07-16.55-13.25-2.1-3.17-4.76-5.06-8.72-4.78-1.04.07-2.11-.13-3.19-.21.63 2.79 1.31 3.82 4.5 6.07 3.68 2.6 6.19 6.03 7.75 10.2.52 1.38.96 2.79 1.42 4.19 1.27 3.86 2.53 7.72 4.32 11.38 5.5 11.26 13.78 19.51 25.69 23.86h-.01zm71.16-131.25c.15.08.34.25.44.21.33-.14.23-.41.08-.65.04-1.84.01-3.69.13-5.52.16-2.38 1.36-4.16 3.36-5.43 1.34-.85 2.8-1.38 4.36-1.67 5.03-.95 9.93-.32 14.75 1.19 1.57.49 3.09 1.74 4.59 1.68 1.51-.06 2.99-1.3 4.59-1.74.08-.02.14-.1.3-.22-1.08-1.62-2.61-2.83-3.97-4.17-9.17-9.02-20.29-13.89-33-15.3-1.94-.21-3.98-.35-5.72.52-2.74 1.37-5.61 1.59-8.57 1.82-3.92.3-7.36 1.74-9.61 5.22-1.89 2.92-1.28 5.29 1.83 6.83 1.31.65 2.77 1.01 4.16 1.48 1.92.65 3.55 1.7 4.26 3.66.65 1.79 1.83 2.63 3.65 2.88 3.65.5 6.5 2.34 8.87 5.15 1.48 1.75 3.22 3.31 5.49 4.07l.01-.01zm-91.84 17.68c.22-.88-.08-1.59-.71-2.7-.07 1.04-.11 1.58-.15 2.12-.72 3.94-2.13 7.61-4.22 11.05-2.44 4.02-4.84 8.08-7.12 12.19-2.17 3.92-3.54 8.11-3.43 12.68.14 6.04 1.22 11.9 3 17.67 2.93 9.47 8.56 16.65 17.45 21.18.59.3 1.18.97 1.99.5.76-5.147 2.49-10.037 5.19-14.67.35-.59.5-1.18.46-1.84-.2-2.98-.72-5.87-2.49-8.38-.96-1.36-1.92-2.71-2.91-4.05-1.95-2.63-2.86-5.54-2.48-8.84.14-1.19.18-2.4.24-3.59.04-.85.02-1.92-.79-2.22-2.21-.83-1.86-2.45-1.53-4.12.78-4 .49-7.88-1.06-11.69-1.38-3.4-1.79-6.95-1.36-10.6.18-1.57.14-3.13-.06-4.7l-.02.01zm89.99 49.18c.5-1.21 1.35-2.2 2.12-3.23 2.88-3.84 6.29-6.79 11.43-6.82.78 0 1.23-.42 1.45-1.06.76-2.26 2.57-2.94 4.67-3.34 2.81-.54 5.05-2.03 6.9-4.17-4.69-5.52-5.44-7.97-4.68-15.1.24-2.21.02-2.74-1.93-3.74-2.27-1.16-4.69-1.45-7.26-1.32-3.43.18-5.81 1.44-6.69 4.99-.61 2.45-2.13 4.26-4.42 5.41-1.61.81-2.82 2.05-3.77 3.58-.73 1.18-1.55 2.3-2.25 3.49-2.38 4.12-5.94 6.48-10.58 7.31-1.09.2-2.18.38-3.27.57-3.75.64-7.56.39-11.33.81-2.69.3-5.3.82-7.5 2.56-1.89 1.49-3.57 3.21-5.22 4.96-.86.92-.96 1.49.16 2.41 5.14 4.26 7.29 9.82 6.86 16.44-.06.88-.37 1.78.08 2.96 3.44-1.49 6.67-.74 9.76 1 .88.5 1.77 1 2.62 1.55 1.71 1.1 3.37 2.28 5.09 3.36 1.84 1.15 3.87 1.76 6.05 1.66 1.85-.08 3.37-.65 4.2-2.57.69-1.61 1.46-3.18 1.95-4.88 1.45-5.05 2.37-10.26 4.36-15.16-.06-.89.94-1.03 1.2-1.7v.03zm66.04 33.39l.52.21c.73-.92 1.5-1.81 2.18-2.77 4.54-6.38 7.56-13.52 10.19-20.83 1.48-4.11 2.55-8.33 2.36-12.73-.75-17.46-4.22-34.24-12.46-49.83-3.78-7.14-8.08-13.89-14.04-19.46-4.75-4.44-10.36-6.22-16.76-5.79-7.26.49-11.07 4.52-10.95 11.75.03 1.94-.27 3.67-1.63 5.1-1.49 1.57-1.6 3.46-1.24 5.44.21 1.18.47 2.36.77 3.52 1.3 5.02 1.28 10.04.14 15.09-.45 1.98-.82 3.99-1.02 6.01-.44 4.25 1.06 7.86 3.71 11.12.44-.29.7-.42.9-.6 5.65-5.37 13.12-5.36 19.51-.84 6.76 4.79 11.72 10.87 14.46 18.77 2.54 7.33 3.39 14.91 3.86 22.58.27 4.43-.07 8.84-.48 13.25l-.02.01zm-142.09-24.49c3.36-2.56 6.56-2.61 9.88-1.48.79.27 1.58.51 2.34.85 5.25 2.31 10.59 4.31 16.29 5.23 2.08.34 3.79 1.37 4.79 3.38.36.71.69 1.53 1.57 1.88.81-.42 1.13-1.54 2.13-1.62 1.21-.11 1.45-.94 1.61-1.88.98-5.95-.48-11.17-4.73-15.51-1.32-1.35-2.91-2.24-4.83-2.48-2.29-.29-3.71-1.57-4.08-3.87-.39-2.42-1.8-3.96-3.94-4.98-2.61-1.25-4.36-3.33-5.59-5.92-1.18-2.5-2.41-4.99-3.68-7.45-1.67-3.24-3.94-5.99-6.79-8.3-4.39-3.56-9.28-3.69-14.42-2.37-1.66.42-1.83.71-1.12 2.34 1.52 3.45 1.53 6.98.89 10.59-.08.45-.11.92-.23 1.37-.2.77-.22 1.42.58 1.92 1.63 1.02 1.59 2.6 1.19 4.19-1.3 5.23.85 9.09 4.84 12.52 1.56-4.32 3.04-8.54 6.73-11.59.47 1.01-.2 1.29-.47 1.71-2.1 3.31-3.55 6.88-4.32 10.72-.18.91-.39 1.83 0 2.73 1.03 2.4 1.36 4.93 1.34 8.05l.02-.03zm85.72-61.81c-.81 4.74-3.57 7.96-7.93 9.88-1.45.64-2.99.98-4.54 1.2-1.82.26-3.14 1.16-3.64 2.94-.36 1.28-.93 2.15-2.32 2.41-.5.1-1.03.47-1.37.87-2 2.37-4.74 2.85-7.55 2.71-4.93-.23-9.56.54-13.79 3.2-.47.29-1 .47-1.5.71-4.68 2.28-9.42 2.31-14.21.35-1.45-.59-2.93-1.15-4.43-1.57-2.07-.58-3.99-.35-5.66 1.24-1.06 1.01-2.26 1.91-3.48 2.73-.82.54-.83 1.05-.45 1.84 1.17 2.41 2.27 4.85 3.44 7.26.75 1.55 1.94 2.72 3.45 3.49 2.84 1.46 4.6 3.64 4.96 6.86.2 1.74 1.49 2.07 2.93 2.39 1.41.32 1.88-.44 2.54-1.47 3.69-5.77 8.61-9.56 15.84-9.57 2.58 0 5.16-.27 7.74-.37 6.53-.27 12.19-2.13 15.49-8.38.21-.4.57-.73.82-1.12 1.3-2.07 2.98-3.75 5.13-4.95 1.24-.69 2.28-1.65 2.67-3.06 1.19-4.32 3.65-7.21 8.71-7.43-2.62-3.94-2.98-7.66-.32-11.32-.85-.57-1.52-1.06-2.51-.88l-.02.04zm34.22 149.82c.04 1.43.48 2.52.91 3.62 2.54 6.35 4.5 12.86 6.16 19.5 2.95 11.81 5.71 23.64 7.3 35.73.61 4.65 1.17 9.31 1.37 13.99.18 4.32.31 8.64.41 12.96.1 4.61-.09 9.22-.2 13.8-.15 6.44-.35 12.93-1.74 19.29-.43 1.99 0 4.04-.01 6.06-.03 5.19-1.22 10.24-2.42 15.25-1.25 5.18-2.76 10.31-4.19 15.44-2.36 8.45-5.54 16.6-9.09 24.61-3.36 7.59-6.97 15.07-11.01 22.33-3.38 6.07-7.25 11.79-11.95 16.92-3.8 4.14-7.61 8.27-11.44 12.38-3.71 3.97-7.21 8.19-11.24 11.81-7.07 6.35-13.98 12.93-22.17 17.91-1.32.8-1.83 2.09-2.03 3.46-.3 2.09 1.2 3.42 3.24 2.91 1.34-.33 2.64-.85 3.6-1.96 2.69-3.09 5.77-5.71 9.47-7.54 1.43-.71 2.65-1.69 3.76-2.8 3.86-3.84 7.5-7.88 10.81-12.2 3.76-4.9 7.65-9.7 11.59-14.45 3.94-4.76 8.17-9.3 11.75-14.32 6.71-9.4 12.74-19.25 18.12-29.48 2.31-4.4 4.52-8.84 5.51-13.81 1.15-5.77 2.62-11.47 4.42-17.08 3.36-10.48 5.38-21.23 6.27-32.18.51-6.25 1.14-12.49.95-18.8-.15-4.96.57-9.92.5-14.93-.07-5.35-.41-10.66-.87-15.97-.53-6.14-1.42-12.24-2.2-18.35-1.06-8.32-2.37-16.59-4.3-24.75-2.24-9.45-6.11-18.38-9.02-27.61-.3-.94-.85-1.63-2.26-1.76v.02zm16 12.4c.31-.52.22-.88.07-1.22-1.04-2.29-1.83-4.59-1.71-7.19.06-1.26-.54-2.5-1.23-3.63-1.24-2.04-2.96-3.5-5.01-4.66-2.22-1.25-4.26-2.79-4.71-5.49-.58-3.41-1.48-6.64-3.54-9.5-.68-.95-.56-1.93.68-2.49 2.15-.98 3.75-2.65 5.29-4.37 2.05-2.29 4.32-4.31 7.13-5.63 3.51-1.65 7.21-2.53 11.69-2.43-3.07-2.04-5.84-3.19-8.95-3.09-2.2.07-4.45.37-6.3 1.78-3.68 2.8-7.7 5.1-11.33 7.97-4.86 3.84-10.3 6.43-16.54 7.22-2.12.27-4.42-.37-6.29.43-1.96.84-3.23 2.97-5.14 4.12-.24.14-.46.32-.7.45-.43.24-.68.6-.76 1.09-.51 2.8-2.16 5.07-3.53 7.47-2.61 4.55-4.52 9.31-4.21 14.7.21 3.56 1.07 7.01 1.81 10.87.16-2.18.34-3.92.38-5.67.02-.75-.04-1.54.4-2.14 1.81-2.45 2.45-5.35 3.25-8.18.62-2.19 2.03-3.69 3.95-4.77.72-.41 1.5-.72 2.25-1.06 3.09-1.39 5.3-3.61 6.55-6.79.78-1.97 1.64-3.91 2.17-5.98.18-.71.18-1.62.91-2.1.78.38.63 1 .62 1.52-.02.82.34 1.15 1.14 1.2 3.74.24 6.13 2.44 7.62 5.63 1.72 3.72 4.71 5.75 8.38 7.16 6.72 2.57 12.05 6.72 14.8 13.64.17.42.3.88.86 1.14zM52.869 78.352c1.27-.72 2.11-1.68 2.99-2.62 1.48-1.58 3.23-2.84 5.52-2.72 1.23.06 1.89-.43 2.39-1.43 2.87-5.7 7.73-8.76 13.74-10.23 1.69-.41 3.04-1.21 4.02-2.7.94-1.44 2.3-2.42 3.99-2.79 1.64-.37 2.83-1.35 3.76-2.65 1.83-2.55 3.55-5.18 6.38-6.81.88-.51.45-1.17-.16-1.49-1.05-.55-2.13-1.14-3.41-.86-1.17.26-2.36.44-3.52.71-3.53.83-6.76 2.46-10.09 3.83-2.71 1.12-5.67 1.77-8.37 1.16-5.38-1.22-9.78.7-14.17 3.2-.63.36-1.4.82-1.48 1.58-.22 2.22-1.7 4.09-1.66 6.39.04 2.4-.93 4.48-2.46 6.32-.83.99-1.57 2.05-1.99 3.3-.25.73-.38 1.45.12 2.11 1.45 1.89 2.91 3.76 4.4 5.68v.02zm85.3-10.94c.18-2.47.33-4.4.45-6.33.19-3.07-.45-6.08-.83-9.1-.37-2.97-.16-5.7 2.02-8.02.99-1.05 1.42-2.27.99-3.82-1.02-3.71-.46-7.14 2.2-10.09.09-.1 0-.34 0-.56-1.79-1.02-3.83-1.25-5.8-1.6-4.03-.71-8.1-.83-12.11.22-3.56.93-4.88 2.69-4.96 6.37-.07 3.34.24 6.65 1.06 9.89.86 3.37 2.49 6.09 5.88 7.56 2.17.94 2.23 1.37 1.39 3.66-.96 2.66-.87 5.24.35 7.8.42.89.92 1.55 2.04 1.57 2.44.04 4.69.8 7.29 2.43l.03.02zm-50.95-53.27c-1.71-.55-3.47-.46-5.18-.23-4.21.57-8.36 1.45-12.39 2.78-8.75 2.88-15.94 7.97-21.6 15.25-2.39 3.08-2.82 6.52-2.13 10.21.1.52.15 1.17.78 1.31.61.13 1.04-.38 1.36-.8.95-1.25 1.89-2.51 2.71-3.83 1.59-2.57 3.85-4.21 6.73-4.96 2.13-.56 4.31-1.02 6.52-.75 1.81.23 3.44-.14 5.01-.97.9-.47 1.8-.94 2.67-1.45 2.79-1.65 5.78-2.38 9.01-2.06 1.66.16 3.32.05 4.97-.12 2.71-.28 4.79-1.63 6.46-3.78-6.14-3.1-6.48-4.76-4.91-10.57l-.01-.03zm34.62 42.56c1.72-3.48 1.62-4.69-.44-7.26-1.23-1.54-2.17-3.27-2.56-5.18-.36-1.75-.79-3.05-2.92-3.36-1.33-.19-2.43-1.27-3.52-2.14-1.68-1.33-3-3-4.36-4.63-1.76-2.1-3.99-3.21-6.71-3.4-6.47-.44-12.24 1.27-17.16 5.57-2.24 1.96-4.7 3.57-7.38 4.87-2.08 1.01-4.15 2.02-6.19 3.1-1.18.63-2.32 1.36-3.28 2.67 4.46.99 8.47.46 12.4-1.14 3.34-1.36 6.74-2.54 10.28-3.28 2.39-.5 5.07-.8 6.82 1.1 1.56 1.71 3.23 2.17 5.3 2.22.64.02 1.28.18 1.9.35 6.73 1.94 13.11 4.51 17.83 10.51h-.01zm-20.41-8.79c-3.65-.33-6.48 1.25-8.71 3.94-2 2.41-4.31 4.27-7.34 5.18-1.19.36-2.29 1.01-2.76 2.16-.99 2.43-3.05 3.43-5.29 4.04-2.55.69-4.78 1.97-6.96 3.34-2.08 1.3-3.54 3.2-4.52 5.47-.38.89-.86 1.76.41 2.28.96.39 1.93 1.19 2.78-.36.7-1.28 1.65-2.45 2.63-3.55 3.84-4.33 8.3-7.53 14.34-8.03 5.87-.48 11.71-1.25 17.32-3.24.94-.33 1.97-.52 2.98-.58 2.7-.15 5.37.01 7.51 1.99.62.57 1.24.69 2.02.45.97-.3 1.96-.5 2.86-1.01 2.14-1.22 2.2-1.79.42-3.42-2.54-2.34-5.48-4.11-8.55-5.57-2.9-1.38-5.84-2.77-9.12-3.08l-.02-.01zm-8.52 167.92c1.5-1.38 1.54-2.94 1.97-4.28.77-2.39 2-4.32 4.34-5.4 1.82-.84 3.16-2.15 4.17-3.89 2.95-5.08 7.15-7.75 13.25-6.91 2.3.32 4.38-.77 6.15-2.08 1.07-.8 1.99-2.05 1.87-3.86-1.23.5-2.25.92-3.27 1.32-5.42 2.11-11 3.63-16.78 4.28-3.22.36-5.07 1.87-5.45 5.03-.2 1.65-.88 2.91-1.81 4.22-2.37 3.33-3.88 7.04-4.43 11.56l-.01.01zm67.75-188.8c-1.25-1.62-2.68-2.49-4.13-3.21-5.73-2.83-9.56-7.35-12.07-13.13-.33-.75-.77-1.46-1.22-2.15-.26-.39-.69-.65-1.19-.43-.37.16-.43.58-.43.94 0 3.38.48 6.62 3.02 9.15 2.28 2.28 4.64 4.48 6.3 7.29.44.75.96.99 1.79.91 2.56-.24 5.1-.06 7.93.63zm-148.56 87.27c-1.63-4.42-2.63-8.93-3.71-13.72-2.85 2.63-4.87 5.35-6.13 8.56-.93 2.39-.27 3.28 2.32 3.18 2.68-.1 5.14.37 7.51 1.98h.01zm86.73-85.45c-.77-2.31-2.01-3.51-3.96-3.97-.56-.13-1.15-.26-1.52.25-1.38 1.94-3.23 3.39-5.02 5.06 3.49-.5 6.77-1.74 10.5-1.33v-.01zm99.38 149.3c-2.29-4.77-6.45-6.71-11.27-7.63 3.9 2.31 7.83 4.57 11.27 7.63zm-76.5 46.12c-.03-.08-.05-.17-.08-.25-.07.12-.19.24-.2.37-.01.13.09.27.14.4.05-.17.1-.34.15-.52h-.01z" fill="#657163"/></svg>