<svg width="161" height="101" fill="none" xmlns="http://www.w3.org/2000/svg"><path d="M151.749 47.235c2.591-1.765 5.224-3.474 7.267-5.92.228-.27.519-.48.848-.611a.847.847 0 01.764.132.982.982 0 010 .792 2.206 2.206 0 01-.542.639 61.643 61.643 0 01-6.517 5.558 74.025 74.025 0 00-2.703 2.084c-.271.216-.618.494-.694.786a2.084 2.084 0 01-1.14 1.43 13.389 13.389 0 00-3.793 3.982c-1.682 2.64-3.432 5.239-5.169 7.844a23.912 23.912 0 01-3.801 4.315c-1.32 1.201-2.661 2.376-3.974 3.57a15.877 15.877 0 01-4.398 2.988c-.973.417-1.855 1.05-2.779 1.556-1.195.64-2.397 1.251-3.599 1.862-2.598 1.334-5.176 2.696-7.802 3.968-1.605.77-3.273 1.39-4.912 2.084a16.167 16.167 0 01-4.746 1.167c-1.202.111-2.39.39-3.578.618-1.466.285-2.925.612-4.39.904-1.82.349-3.604.853-5.337 1.507-3.091 1.175-5.419 3.356-7.642 5.698-.347.36-.646.764-1.007 1.104a2.78 2.78 0 01-.862.598 1.049 1.049 0 01-1.202-.084 1 1 0 01-.111-1.39 21.344 21.344 0 013.39-4.376c1.117-1.1 2.326-2.101 3.613-2.995 2.085-1.535 4.079-3.12 6.198-4.558 2.834-1.91 5.739-3.716 8.629-5.558a83.879 83.879 0 0111.262-5.579 45.465 45.465 0 013.585-1.39 9.242 9.242 0 012.293-.486c4.092-.298 7.948-1.549 11.811-2.89a18.266 18.266 0 004.662-2.564 13.7 13.7 0 001.681-1.618 26.32 26.32 0 014.426-4.002 12.823 12.823 0 003.182-3.412.467.467 0 000-.396.343.343 0 00-.313-.118c-1.341.653-2.73 1.237-4.001 2.008a64.33 64.33 0 01-6.531 3.161 51.497 51.497 0 01-10.589 3.37c-1.514.347-2.98.924-4.488 1.39-1.508.465-3.029.77-4.537 1.201a31.62 31.62 0 01-10.581.973 23.246 23.246 0 01-4.641-.48 3.598 3.598 0 00-1.279 0 24.013 24.013 0 00-8.74 2.69c-.313.166-.618.347-.945.493a5.823 5.823 0 00-2.598 2.154c0 .055-.084.11-.118.173-1.897 2.849-4.1 5.468-6.253 8.122a23.006 23.006 0 01-6.462 5.823c-2.3 1.299-4.537 2.695-6.802 4.036a19.982 19.982 0 01-6.17 2.328c-4.001.854-8.059 1.667-12.088 2.605a99.236 99.236 0 00-13.451 4.12 6.195 6.195 0 00-2.557 1.501 1.288 1.288 0 01-.535.34.767.767 0 01-.597 0 1.179 1.179 0 01-.383-.695 1.077 1.077 0 01.598-1.063c1.105-.646 2.202-1.313 3.328-1.917 2.64-1.39 5.252-2.863 7.774-4.475.695-.416 1.39-.694 2.085-1.076a57.152 57.152 0 005.308-3.231c3.133-2.085 6.08-4.475 9.185-6.614a16.105 16.105 0 019.178-3.05 14.632 14.632 0 006.406-1.453c.504-.266 1.026-.499 1.563-.694a7.198 7.198 0 002.82-1.87c.459-.44.962-.83 1.501-1.166a45.893 45.893 0 004.544-3.217 7.274 7.274 0 011.633-1.008c1.869-.861 3.766-1.681 5.655-2.515.521-.23 1.05-.444 1.57-.695.05 0 .119-.138.105-.16-.014-.02-.14-.256-.23-.27-2.952-.466-5.905-.91-8.858-1.39-1.473-.236-2.939-.57-4.419-.778-3.383-.48-6.774-.896-10.157-1.39a43.195 43.195 0 01-3.981-.757c-1.314-.313-2.654-.417-3.947-.834a5.287 5.287 0 00-2.084-.048 55.375 55.375 0 00-11.443 2.425c-2 .744-3.96 1.595-5.87 2.55a63.12 63.12 0 01-8.47 3.529c-1.49.49-3.03.808-4.593.945a33.353 33.353 0 01-6.607.055 23.379 23.379 0 01-7.531-2.195 95.367 95.367 0 00-5.642-2.55A18.689 18.689 0 004.2 63.617c-.855-.09-1.696-.222-2.543-.354a2.78 2.78 0 01-.598-.208.758.758 0 01-.292-.924.597.597 0 01.633-.445c1.285 0 2.563.063 3.842.097 2.563.07 5.12.077 7.69-.07 2.912-.16 5.837-.048 8.762-.062 4.169 0 8.26.104 12.395-.167a32.031 32.031 0 005.69-.896c1.098-.285 2.216-.535 3.32-.785a19.606 19.606 0 014.461-.41c1.494 0 2.988-.097 4.475-.23a9.782 9.782 0 013.182.14c.346.042.696.042 1.042 0 .063 0 .167-.07.167-.118v-.361a8.182 8.182 0 00-1.529-.695 131.942 131.942 0 01-21.871-8.004c-1.543-.695-3.023-1.598-4.51-2.432a2.175 2.175 0 00-1.59-.444c-.28.022-.56-.038-.806-.174-3.35-1.556-6.316-3.564-8.254-6.844a20.085 20.085 0 00-3.94-4.488 18.666 18.666 0 01-3.133-3.474 21.9 21.9 0 01-3.53-9.553c-.18-1.48-.208-2.98-.298-4.474a18.203 18.203 0 011.16-7.122c.459-1.334 1.16-2.605 1.14-4.092A.75.75 0 0110 6.333c1.278-.062 2.557-.097 3.835-.139a8.935 8.935 0 003.752-.694c.265-.098.544-.15.827-.153a.84.84 0 01.757.868 5.25 5.25 0 01-.396 1.21c-.396.75-.875 1.465-1.285 2.208a10.555 10.555 0 00-.202 9.255 48.072 48.072 0 003.474 5.898 86.866 86.866 0 013.661 6.024 10.19 10.19 0 011.07 3.002 41.37 41.37 0 002.55 7.684c.264.695.563 1.313.778 1.987a4.864 4.864 0 001.855 2.55 32.914 32.914 0 006.1 3.474c2.946 1.264 5.934 2.41 8.866 3.717 2.591 1.153 5.343 1.952 8.017 2.932 4.58 1.674 9.36 2.459 14.125 3.328 3.154.576 6.295 1.208 9.45 1.771 1.611.285 3.237.48 4.863.695.173 0 .368-.139.555-.222a3.267 3.267 0 00-.264-.57 1.617 1.617 0 00-.451-.445c-1.334-.82-2.654-1.667-4.016-2.438a14.04 14.04 0 00-2.348-1 15.574 15.574 0 01-3.8-1.904c-1.758-1.196-3.607-2.28-5.469-3.322a28.938 28.938 0 01-6.253-4.467 16.626 16.626 0 01-4.585-7.114 6.738 6.738 0 01-.209-3.579c.3-1.243.535-2.508.904-3.73.27-.883.635-1.734 1.09-2.536.756-1.291 1.287-2.7 1.57-4.17.283-1.69.93-3.3 1.897-4.717a19.343 19.343 0 002.62-5.113 9.776 9.776 0 012.084-3.21c.142-.156.296-.303.459-.438 1.931-1.758 2.584-4.036 2.626-6.537 0-1.501 0-2.995-.042-4.489a2.623 2.623 0 010-.84c.09-.258.264-.478.493-.626.209-.139.695.278.765.59.043.21.068.42.076.633 0 2.272-.042 4.558-.125 6.83-.037.783-.165 1.56-.382 2.313a26.112 26.112 0 00-.994 6.948 3.126 3.126 0 00.216 1.668c.095.19.13.407.097.618a16.098 16.098 0 00.382 5.093c.23 1.403.27 2.83.118 4.245-.201 1.98-.187 3.98-.236 5.975a6.378 6.378 0 00.584 2.688 85.284 85.284 0 011.59 4.17c.564 1.611 1.154 3.209 1.856 4.772.53 1.245.962 2.53 1.292 3.842a8.763 8.763 0 002.036 3.808c1.445 1.577 2.904 3.14 4.905 4.057.523.23 1.012.531 1.452.896 2.737 2.418 6.08 3.308 9.574 3.822 2.675.389 5.35.785 8.031 1.167a7.8 7.8 0 001.696.132c3.696-.25 7.406-.368 11.067-.973 1.612-.27 3.203-.695 4.787-1.07a489.52 489.52 0 007.643-1.938c.404-.123.801-.27 1.188-.438a.228.228 0 00.042-.194.22.22 0 00-.075-.073.22.22 0 00-.099-.032c-.993.077-1.98.146-2.974.258a46.74 46.74 0 01-8.337.458 32.547 32.547 0 01-3.397-.375 10.197 10.197 0 01-5.989-3.474 54.77 54.77 0 01-4.266-6.128c-.466-.695-.924-1.431-1.39-2.14a22.394 22.394 0 01-1.445-2.084c-1.278-2.453-3.286-4.28-5.218-6.177a17.481 17.481 0 00-5.634-3.758c-1.584-.654-3.134-1.39-4.69-2.085a19.813 19.813 0 01-6.253-4.759 6.017 6.017 0 01-1.39-2.598c-.243-.966-.57-1.911-.757-2.863a4.953 4.953 0 00-1.028-2.286.653.653 0 01-.083-.403c0-.132.041-.326.132-.382.09-.055.423-.236.555-.174.385.175.74.41 1.05.695.458.445.847.966 1.285 1.431a7.524 7.524 0 003.759 2.3c1.525.368 3.013.875 4.446 1.515a35.427 35.427 0 014.238 2.466 40.061 40.061 0 006.948 3.697c1.779.694 3.522 1.521 5.308 2.23.794.314 1.618.546 2.46.694a8.83 8.83 0 015.634 3.55 18.508 18.508 0 011.466 2.356 40.827 40.827 0 007.879 10.31 16.261 16.261 0 002.862 1.925 18.421 18.421 0 0010.596 2.78c2-.042 3.967-.516 5.766-1.39a9.486 9.486 0 012.779-1.05c.284-.044.558-.14.806-.284 2.168-1.348 4.593-2.28 6.503-4.065 1.14-1.14 2.453-2.022 3.683-2.987zM82.014 93.312l-.215.32h.174v-.355l1.73-1.59a6.905 6.905 0 012.563-2.19c.98-.576 1.946-1.173 2.932-1.75 2.515-1.473 5.023-2.96 7.566-4.391a552.831 552.831 0 019.915-5.461 31.76 31.76 0 015.148-2.564c1.494-.486 2.994-.917 4.495-1.355 4.099-1.195 8.24-2.223 12.145-4.015a36.617 36.617 0 006.871-3.85c.459-.34.889-.694 1.32-1.083.049-.049 0-.216 0-.32a.27.27 0 00-.201 0c-.299.18-.598.362-.883.563a14.948 14.948 0 01-5.558 2.668c-.621.153-1.228.36-1.813.618a32.783 32.783 0 01-8.497 1.966 17.47 17.47 0 00-3.314.758 73.3 73.3 0 00-10.755 4.697 107.89 107.89 0 00-10.742 6.558c-2.695 1.862-5.343 3.794-7.969 5.746a37.096 37.096 0 00-3.057 2.66c-.16.147-.11.515-.173.772a2.084 2.084 0 00-1.682 1.598zM40.022 64.674c-2.181.236-4.37.444-6.552.694a29.625 29.625 0 01-5.322.216c-1.486-.084-2.98-.125-4.474-.063-3.27.123-6.54-.19-9.727-.93a15.911 15.911 0 00-2.084-.168c.215.834 1.049.827 1.626 1.119a30.586 30.586 0 003.32 1.445 24.12 24.12 0 005.76 1.522 29.875 29.875 0 0016.37-2.96c.444-.216.916-.417 1.097-.938.042 0 .083.063.132.09.049.028 0 0 0 0l-.146-.027zm7.254 28.214c.11.271.229.535.597.459.973-.209 1.939-.43 2.911-.632 2.925-.605 5.857-1.154 8.768-1.814 1.89-.37 3.71-1.036 5.392-1.973a258.03 258.03 0 007.121-4.294 21.855 21.855 0 005.315-4.571c1.39-1.64 2.73-3.266 4.078-4.92.247-.344.466-.71.654-1.09a.437.437 0 00-.09-.18c-.043-.05-.119-.084-.154-.07a1.827 1.827 0 00-.562.264c-1.131 1.085-2.414 2-3.808 2.716-.44.234-.834.547-1.16.924a52.269 52.269 0 01-4.169 3.96 20.205 20.205 0 01-5.704 3.676c-1.16.521-2.313 1.07-3.474 1.584-2.21.973-4.39 2.022-6.649 2.87-2.987 1.125-6.037 2.084-9.032 3.147l-.299.264v.118l.264-.438zm14.36-70.276a3.112 3.112 0 001.675-1.223 29.49 29.49 0 002.39-4.974c.076-.244.09-.695 0-.758-.354-.146-.459.216-.57.459-.458 1.035-.854 2.084-1.39 3.112-.61 1.181-1.104 2.453-2.125 3.384 0 .132 0 .306-.049.403a9.728 9.728 0 00-1.556 3.94 13.33 13.33 0 01-1.543 4.168 16.871 16.871 0 00-2.084 6.69 5.658 5.658 0 00.146 2.085 13.958 13.958 0 003.328 5.87 29.012 29.012 0 007.17 5.434c1.785 1.021 3.55 2.084 5.329 3.14.299.159.607.298.924.417.201-.521-.306-.695-.521-.993a3.82 3.82 0 00-.771-.695 16.05 16.05 0 01-2.877-3.14 35.045 35.045 0 00-2.82-3.474 12.276 12.276 0 01-2.905-4.899 13.07 13.07 0 00-.694-2.014 7.01 7.01 0 01-.75-2.648 22.414 22.414 0 00-.855-4.168 10.602 10.602 0 01.145-7.129c.292-.694.473-1.486.695-2.237a.695.695 0 00-.291-.75zm5.496-4.287l-.125-.049.125.105a2.174 2.174 0 00-1.049 1.007c-.462.96-.99 1.89-1.577 2.78a14.289 14.289 0 00-1.515 2.813 11.59 11.59 0 00-.486 8.129c.312 1.02.544 2.063.695 3.12a22.872 22.872 0 003.015 8.156 7.55 7.55 0 001.209 1.515 27.42 27.42 0 013.397 4.106c.484.614 1.026 1.18 1.62 1.688.117.111.388.097.583.084a.542.542 0 00.097-.376 21.4 21.4 0 00-.993-3.265 82.099 82.099 0 01-2.967-7.789 6.498 6.498 0 00-.486-1.18c-1.015-1.745-1.133-3.655-1.056-5.559.069-1.709.27-3.404.375-5.113.055-.709.041-1.42-.042-2.126-.167-1.272-.403-2.53-.653-3.787a2.487 2.487 0 00-.493-1.14 1.39 1.39 0 01-.313-1.563c.195-.542.424-1.049.64-1.556zm41.687 31.848a107.118 107.118 0 00-8.046-7.948 44.648 44.648 0 00-5.787-4.349 32.662 32.662 0 00-3.043-1.96 25.114 25.114 0 01-6.108-4.244 20.028 20.028 0 00-1.931-1.668 18.9 18.9 0 00-2.647-1.771c-.9-.424-1.755-.939-2.55-1.536a9.47 9.47 0 00-1.674-.91.381.381 0 00-.514.438c.046.351.125.698.236 1.035a9.163 9.163 0 002.418 3.21 19.064 19.064 0 006.079 3.863c1.445.604 2.876 1.25 4.294 1.903a15.285 15.285 0 013.78 2.383 31.056 31.056 0 014.96 5.28c1.931 2.724 3.696 5.559 5.558 8.338.966 1.39 1.966 2.78 3.064 4.1a8.233 8.233 0 004.863 2.855c.633.118 1.265.222 1.897.32a24.83 24.83 0 006.177 0c1.841-.167 3.675-.376 5.516-.577.118 0 .223-.119.341-.174-.153-.104-.306-.292-.459-.299-4.384-.146-8.295-1.848-12.152-3.703-.444-.215-.833-.549-1.271-.785a3.418 3.418 0 01-1.202-1.174c-.563-.903-1.195-1.758-1.813-2.627h.014zm-.16-9.636c-1.466-1.834-2.432-2.397-4.732-3.022a39.575 39.575 0 01-4.23-1.46c-1.717-.694-3.377-1.5-5.08-2.209a32.64 32.64 0 01-4.905-2.577c-1.14-.695-2.306-1.39-3.474-2.085a13.166 13.166 0 00-1.326-.694c-.084 0-.223.062-.334.097 0 .062 0 .146.083.194a26.13 26.13 0 006.67 5.253 44.361 44.361 0 016.066 3.96c.284.215.597.382.875.605 1.521 1.174 3.113 2.272 4.516 3.57 1.716 1.592 3.293 3.336 4.863 5.059 1.39 1.514 2.78 3.057 4.072 4.655a8.238 8.238 0 003.217 2.397c1.5.639 3.015 1.257 4.55 1.827a18.71 18.71 0 004.364.966c.083 0 .187-.146.271-.23a.29.29 0 00-.098-.146c-.576-.284-1.16-.548-1.723-.84a21.93 21.93 0 01-5.419-3.738 40.568 40.568 0 01-3.814-4.586c-1.105-1.473-2.036-3.078-3.023-4.64-.486-.723-.938-1.557-1.403-2.356h.014zm-90.133-1.39c.32.473.625.952.952 1.39a16.387 16.387 0 002.619 2.78 5.739 5.739 0 002.654 1.264.408.408 0 00.34-.14.362.362 0 000-.354 48.562 48.562 0 01-4.64-7.163c-.946-1.667-2.023-3.265-2.981-4.926a33.958 33.958 0 01-1.841-3.613c-1.529-3.599-2.87-7.28-4.537-10.824a3.828 3.828 0 01-.424-1.633c.013-1.139.118-2.275.313-3.397a4.267 4.267 0 012.146-3.266c.428-.252.84-.528 1.237-.827.24-.15.472-.312.695-.486a.381.381 0 00.132-.34.381.381 0 00-.299-.202c-.993.077-1.98.18-2.973.271a1.536 1.536 0 00-1.466 1.105c-.361.923-.774 1.826-1.237 2.703a11.04 11.04 0 00-1.181 5.162c0 1.563.166 3.126.194 4.69.145 2.78.88 5.5 2.154 7.975a14.93 14.93 0 003.196 4.516c1.737 1.64 3.585 3.245 4.933 5.295l.014.02zm112.046 32.898c1.119-1.05 2.258-2.084 3.391-3.196.082-.097.152-.205.208-.32a1.213 1.213 0 00-.396.07c-1.07.57-2.084 1.237-3.189 1.716a76.232 76.232 0 01-9.991 3.696c-1.577.424-3.147.883-4.731 1.272a31.35 31.35 0 00-8.088 3.244c-3.473 1.953-6.982 3.808-10.47 5.711-1.056.584-2.084 1.195-3.133 1.8-.056 0-.111.125-.097.166a.208.208 0 00.16.126c.42-.025.84-.072 1.257-.14 3.356-.597 6.663-1.465 10.06-1.861a9.317 9.317 0 002.085-.535c1.264-.466 2.508-.994 3.758-1.508 3.356-1.39 6.489-3.224 9.727-4.863 2.842-1.466 5.6-3.092 8.386-4.648.34-.188.681-.445 1.063-.73zm-106.14-30.89c.57.695 1.09 1.494 1.722 2.161.426.371.892.693 1.39.959.27-.605-.146-1.07-.313-1.591-.11-.338-.237-.67-.382-.994a36.865 36.865 0 01-2.564-7.642 9.066 9.066 0 00-1-2.57c-1.278-2.224-2.64-4.392-3.967-6.58-1.327-2.189-2.78-4.294-3.703-6.712a7.433 7.433 0 01-.563-3.335c.132-1.619.056-3.272.64-4.863 0-.049 0-.174-.056-.188-.056-.014-.25-.09-.34-.041a6.07 6.07 0 00-1.12.625 4.231 4.231 0 00-1.743 2.084c-.459 1.8-.737 3.55.118 5.405 1.577 3.419 2.966 6.948 4.377 10.422a15.773 15.773 0 002.084 3.94c.36.528.686 1.08.973 1.653 1.424 2.453 2.668 5.023 4.446 7.267zm46.223 40.43c.43-.376.875-.73 1.278-1.133s1.174-.827 1.39-1.577c-.695-.438-1.286.18-1.932.264-1.48.18-2.953.416-4.433.535-2.21.087-4.371.666-6.329 1.695a45.057 45.057 0 00-4.8 3.182 82.844 82.844 0 01-12.278 8.073 8.798 8.798 0 00-.917.542c-.103.094-.19.204-.257.327.125 0 .264.062.375 0 1.46-.535 2.919-1.084 4.385-1.626.861-.32 1.716-.695 2.598-.945a83.911 83.911 0 0010.172-3.78c2.195-1 4.39-2 6.579-3.029a21.54 21.54 0 004.169-2.529zm-59.8-18.572v.257a.263.263 0 00.16.132c1.056.146 2.126.23 3.168.445 2.663.47 5.363.703 8.067.694 1.778.042 3.557 0 5.336 0 2.278.094 4.56-.024 6.815-.354.695-.132 1.39-.208 2.085-.32 2.244-.36 4.495-.729 6.739-1.104.348-.072.69-.172 1.021-.299a355.38 355.38 0 003.828-1.34c.2-.07.392-.157.577-.258a.202.202 0 00.049-.201.23.23 0 00-.132-.153 7.77 7.77 0 00-1.056-.07c-2.28.082-4.542.432-6.74 1.042a28.098 28.098 0 01-5.662 1.077c-4.863.313-9.678.209-14.52.216-2.981 0-5.969.041-8.956.076a5.262 5.262 0 00-.779.16zm128.471-.125a5.727 5.727 0 001.216-1.806.562.562 0 000-.209c-.062 0-.146 0-.181.042-.66.646-1.313 1.285-1.945 1.952-.056.056 0 .23.042.348.058.02.122.02.18 0 .167-.098.348-.202.688-.348v.02zm-55.443-.66h.125l-.055-.104-.07.104z" fill="#657163"/></svg>