<svg xmlns="http://www.w3.org/2000/svg" version="1.1" xmlns:xlink="http://www.w3.org/1999/xlink" width="64" height="64"><svg width="64" height="64" viewBox="0 0 64 64" fill="none" xmlns="http://www.w3.org/2000/svg">
<rect x="64" width="64" height="64" rx="12" transform="rotate(90 64 0)" fill="#FAFCF8"></rect>
<path d="M33.5764 55.0313C34.1583 55.8897 34.7218 56.762 35.5281 57.4386C35.6172 57.5142 35.6864 57.6106 35.7297 57.7194C35.7431 57.762 35.746 57.8072 35.7385 57.8512C35.7309 57.8953 35.713 57.9368 35.6862 57.9725C35.645 57.9906 35.6006 58 35.5556 58C35.5107 58 35.4662 57.9906 35.4251 57.9725C35.3441 57.9267 35.2726 57.8658 35.2143 57.793C34.5544 57.117 33.942 56.3956 33.3817 55.6343C33.1572 55.3274 32.9281 55.029 32.6945 54.739C32.6235 54.6492 32.5318 54.5342 32.4356 54.5088C32.3336 54.4861 32.238 54.4403 32.1563 54.3749C32.0745 54.3095 32.0086 54.2262 31.9637 54.1314C31.6174 53.6259 31.1704 53.198 30.6511 52.8748C29.7806 52.3179 28.9239 51.7379 28.0649 51.1626C27.542 50.802 27.0643 50.3793 26.6423 49.9037C26.246 49.4664 25.8589 49.0222 25.4648 48.5872C25.0574 48.1607 24.7244 47.6682 24.4798 47.1304C24.3424 46.8082 24.1339 46.5159 23.9667 46.2099C23.7559 45.814 23.5544 45.4159 23.3528 45.0177C22.9129 44.157 22.464 43.3031 22.0447 42.4332C21.7905 41.9016 21.5866 41.3492 21.3575 40.8061C21.1507 40.3047 21.0209 39.7747 20.9727 39.2342C20.936 38.836 20.8444 38.4425 20.7688 38.0489C20.6749 37.5633 20.5672 37.08 20.471 36.5944C20.3559 35.9921 20.1896 35.4007 19.9739 34.8269C19.5868 33.8028 18.8675 33.0318 18.0955 32.2953C17.9764 32.1803 17.8435 32.0813 17.7312 31.9616C17.6482 31.8799 17.5813 31.7831 17.5342 31.6763C17.4976 31.6151 17.4805 31.5441 17.4854 31.4728C17.4903 31.4016 17.517 31.3336 17.5617 31.2781C17.6183 31.2133 17.6978 31.1732 17.7834 31.1663C17.8689 31.1595 17.9538 31.1864 18.0199 31.2413C18.5474 31.5511 19.0326 31.9287 19.4631 32.3644C19.8254 32.7344 20.1557 33.1347 20.4504 33.5611C20.9566 34.2516 21.4789 34.9121 21.9531 35.614C22.5831 36.553 23.1787 37.515 23.7857 38.4724C24.4909 39.668 25.1058 40.915 25.6252 42.203C25.7947 42.5897 25.9459 42.9878 26.0834 43.3906C26.1687 43.6359 26.2226 43.8911 26.2437 44.1501C26.3422 45.5056 26.7545 46.7829 27.1967 48.0625C27.4019 48.616 27.6866 49.1362 28.0419 49.6068C28.2038 49.8074 28.3823 49.9937 28.5757 50.1637C29.0695 50.6005 29.5121 51.0923 29.8952 51.6297C30.2028 52.0473 30.584 52.4045 31.0199 52.6838C31.0404 52.6934 31.0627 52.6985 31.0852 52.6985C31.1078 52.6985 31.1301 52.6934 31.1505 52.6838C31.1653 52.6714 31.1767 52.6553 31.1835 52.6372C31.1903 52.619 31.1924 52.5994 31.1894 52.5802C30.9741 52.1361 30.7817 51.6758 30.5274 51.2546C30.1397 50.5538 29.7917 49.8315 29.4851 49.0913C28.9899 47.9658 28.6174 46.7898 28.3741 45.5839C28.2596 45.0821 28.0694 44.5965 27.916 44.0971C27.7625 43.5977 27.6617 43.0937 27.5197 42.5943C27.2167 41.4525 27.1083 40.2674 27.1989 39.0892C27.2002 38.5727 27.2531 38.0577 27.357 37.5518C27.3822 37.4118 27.3822 37.2684 27.357 37.1284C27.2488 36.1152 26.9479 35.1323 26.4705 34.2332C26.4155 34.1296 26.356 34.0283 26.3078 33.9202C26.1609 33.5691 25.9138 33.2696 25.5977 33.0594C25.5794 33.0594 25.5611 33.0318 25.5404 33.0203C24.6012 32.392 23.7376 31.6625 22.8625 30.949C22.093 30.3647 21.4415 29.6383 20.9429 28.8087C20.5145 28.0469 20.0541 27.3058 19.612 26.5556C19.2453 25.9217 18.9859 25.2311 18.8446 24.5119C18.5628 23.1862 18.2948 21.8422 17.9855 20.5074C17.6382 18.9918 17.1842 17.5028 16.6271 16.0518C16.5328 15.7334 16.363 15.4428 16.1323 15.2049C16.0807 15.1561 16.0421 15.0952 16.0201 15.0276C16.0068 14.9963 16 14.9627 16 14.9287C16 14.8947 16.0068 14.861 16.0201 14.8297C16.0796 14.7623 16.1605 14.7176 16.2491 14.7031C16.3206 14.6967 16.3924 14.7121 16.4549 14.7475C16.5175 14.7828 16.5679 14.8363 16.5996 14.9011C16.8127 15.267 17.0326 15.6306 17.2319 16.0035C17.69 16.878 18.1757 17.7433 18.7071 18.5788C18.8446 18.8089 18.9362 19.0391 19.0622 19.2692C19.3852 19.8743 19.7408 20.4612 20.1274 21.0275C20.8146 22.0654 21.6026 23.0413 22.3082 24.07C22.9455 24.956 23.2966 26.0172 23.3138 27.1102C23.3113 27.8448 23.475 28.5704 23.7926 29.2321C23.8806 29.3993 23.9571 29.5723 24.0217 29.75C24.1502 30.1062 24.3615 30.4265 24.6379 30.6843C24.783 30.8361 24.912 31.0028 25.0227 31.1814C25.3456 31.7043 25.6998 32.2069 26.0834 32.6866C26.2174 32.8513 26.329 33.0332 26.4155 33.2274C26.6996 33.8465 26.9699 34.4748 27.2448 35.1008C27.3204 35.2734 27.3914 35.4483 27.4738 35.6209C27.4738 35.637 27.5197 35.6601 27.5265 35.6554C27.5334 35.6508 27.6113 35.6094 27.6159 35.5795C27.7693 34.6014 27.916 33.6233 28.074 32.6452C28.1519 32.1573 28.2619 31.6717 28.3306 31.1814C28.4886 30.0606 28.6261 28.9375 28.7887 27.8167C28.8506 27.3749 28.9353 26.933 29.0384 26.498C29.1415 26.063 29.1759 25.6189 29.3133 25.1908C29.3642 24.964 29.3697 24.7293 29.3294 24.5004C29.1968 23.2121 28.9288 21.9415 28.5299 20.7099C28.2843 20.0471 28.0037 19.3979 27.6892 18.7652C27.234 17.8596 26.8451 16.922 26.5255 15.9597C26.3637 15.4664 26.2591 14.9559 26.2139 14.4385C26.1357 13.7113 26.1296 12.9782 26.1956 12.2498C26.2953 11.3832 26.54 10.5397 26.9195 9.75504C27.2219 9.14056 27.499 8.51687 27.7602 7.88627C27.9807 7.33246 28.1203 6.74954 28.1748 6.15559C28.2046 5.87251 28.2481 5.59404 28.2916 5.31326C28.307 5.24488 28.33 5.17847 28.3604 5.11534C28.3919 5.06599 28.4396 5.0293 28.4953 5.01164C28.551 4.99399 28.611 4.99647 28.665 5.01868C28.7102 5.03048 28.7497 5.05801 28.7766 5.09637C28.8034 5.13472 28.8159 5.18141 28.8116 5.22811C28.8116 5.65388 28.791 6.07734 28.7796 6.50081C28.7567 7.35004 28.7544 8.19697 28.8025 9.0485C28.8552 10.0128 28.8185 10.9817 28.8231 11.9506C28.8231 13.3315 28.7887 14.687 28.8781 16.0564C28.92 16.6923 29.0189 17.3232 29.1736 17.9413C29.2675 18.3049 29.35 18.6754 29.4324 19.0414C29.5335 19.5271 29.5789 20.0228 29.5676 20.5189C29.5676 21.0137 29.5997 21.5085 29.6432 22.001C29.6853 22.3525 29.6699 22.7086 29.5974 23.0551C29.5836 23.1697 29.5836 23.2856 29.5974 23.4003C29.5974 23.421 29.6203 23.4555 29.6363 23.4555C29.6524 23.4555 29.744 23.4555 29.7554 23.4555C29.8489 23.2951 29.9256 23.1254 29.9845 22.9492C30.6499 20.4608 31.533 18.0364 32.6235 15.7043C32.8525 15.1933 33.1503 14.7031 33.4252 14.2106C33.5412 14.0612 33.5939 13.8718 33.5718 13.6836C33.5644 13.5909 33.5844 13.4981 33.6291 13.4166C34.1422 12.3073 34.8043 11.3246 35.8855 10.6825C36.4407 10.3241 36.9395 9.88423 37.3653 9.37761C37.7023 8.98474 38.0871 8.63602 38.5107 8.33966C39.4546 7.70668 40.5337 7.30614 41.6605 7.17052C42.1484 7.11069 42.6432 7.10148 43.1358 7.07156C43.9361 7.04099 44.7345 7.17167 45.4838 7.4559C45.9236 7.6078 46.3428 7.84024 46.833 7.83334C46.8946 7.83793 46.9523 7.86551 46.9947 7.91065C47.0371 7.95579 47.0611 8.01524 47.0621 8.07729C47.0827 8.50076 47.0942 8.92422 47.1079 9.34769C47.0943 9.77369 47.1725 10.1976 47.337 10.5905C47.3691 10.6782 47.3861 10.7708 47.3874 10.8643C47.3804 10.9349 47.3469 11.0002 47.2937 11.0468C47.2405 11.0934 47.1716 11.1179 47.1011 11.1152C46.9634 11.0879 46.8295 11.0438 46.7025 10.984C46.4551 10.8528 46.2191 10.694 45.974 10.5582C45.5039 10.3149 44.9847 10.1824 44.456 10.1708C43.9273 10.1593 43.4029 10.2689 42.9227 10.4915C42.248 10.8281 41.5981 11.2127 40.9779 11.6422C40.3342 12.0726 39.6698 12.4776 38.9918 12.8551C38.6824 13.0246 38.3485 13.1442 38.0022 13.2095C37.1322 13.4071 36.2836 13.69 35.4686 14.0541C35.2395 14.1416 35.0356 14.2405 34.8134 14.3119C34.473 14.4172 34.1773 14.6334 33.9727 14.9264C33.5203 15.557 33.1363 16.2344 32.8273 16.947C32.4104 17.9229 32.0324 18.9125 31.6018 19.8837C31.2215 20.7421 30.9581 21.6535 30.6351 22.5395C30.083 24.0562 29.8242 25.6396 29.5378 27.2184C29.3477 28.2632 29.1392 29.3035 28.9537 30.3483C28.8597 30.8823 28.7956 31.4208 28.7246 31.9593C28.7246 32.0169 28.7704 32.0813 28.7979 32.1435C28.8632 32.1204 28.9261 32.0911 28.9857 32.056C29.0439 32.0163 29.0938 31.9655 29.1323 31.9064C29.4027 31.4645 29.6821 31.0273 29.9364 30.5762C30.0697 30.3275 30.1801 30.0671 30.2663 29.7983C30.4173 29.3518 30.6284 28.9282 30.8939 28.5394C31.288 27.9571 31.6453 27.3449 31.9889 26.7282C32.3861 25.975 32.8814 25.2784 33.4619 24.6569C34.1003 23.9557 34.9084 23.4324 35.8076 23.1379C36.1875 23.0083 36.5951 22.9845 36.9874 23.0689C37.3974 23.1678 37.8143 23.2461 38.2175 23.3681C38.5085 23.4573 38.7889 23.5785 39.0536 23.7294C39.4791 23.9797 39.9439 24.1556 40.4281 24.2495C40.9858 24.343 41.5166 24.5574 41.9835 24.8778C42.4994 25.2497 43.0676 25.5422 43.6695 25.7454C44.0641 25.9033 44.4238 26.1379 44.7278 26.4359C44.7794 26.4831 44.8276 26.5338 44.8721 26.5878C45.4517 27.2276 46.2031 27.4439 47.0277 27.4577C47.5226 27.4577 48.0151 27.4577 48.5076 27.4439C48.5994 27.4289 48.693 27.4289 48.7848 27.4439C48.8697 27.4737 48.9423 27.5313 48.9909 27.6073C49.0367 27.6764 48.8993 27.8375 48.7962 27.8605C48.7275 27.8747 48.6578 27.8832 48.5878 27.8858C47.8387 27.8858 47.085 27.872 46.3359 27.8444C46.0776 27.8322 45.8216 27.7897 45.5731 27.7178C44.8278 27.505 44.0572 27.3943 43.2824 27.3887C43.0961 27.3616 42.9059 27.3863 42.7326 27.46C42.6696 27.4916 42.5983 27.5029 42.5287 27.4922C41.9659 27.4444 41.399 27.4871 40.8496 27.6188C40.3869 27.6951 39.9161 27.7083 39.4499 27.6579C38.7971 27.5912 38.1373 27.5958 37.4799 27.5797C37.1739 27.5786 36.8713 27.6445 36.5933 27.773C36.1352 27.964 35.677 28.1366 35.2189 28.3C34.6874 28.4865 34.1606 28.6821 33.6451 28.9145C33.2346 29.0901 32.8111 29.2332 32.3784 29.3426C31.9105 29.4586 31.4789 29.6905 31.123 30.0169C30.603 30.4956 30.0876 30.9789 29.7852 31.6417C29.7096 31.8152 29.6101 31.9771 29.4897 32.1227C28.6925 33.0295 28.3993 34.1365 28.2298 35.2941C28.1015 36.1802 27.9709 37.0662 27.8449 37.9546C27.8101 38.1396 27.7955 38.3279 27.8014 38.5161C27.8839 39.7405 27.9228 40.9695 28.1221 42.1823C28.2115 42.7163 28.3512 43.2433 28.4749 43.768C28.6811 44.6173 28.8964 45.4619 29.114 46.2996C29.1546 46.4334 29.2028 46.5648 29.2583 46.6932C29.2673 46.7002 29.2777 46.705 29.2888 46.7074C29.2999 46.7098 29.3114 46.7097 29.3225 46.707C29.3323 46.7008 29.3406 46.6924 29.3466 46.6824C29.3525 46.6724 29.3561 46.6611 29.3568 46.6494C29.3316 46.3203 29.3087 45.9935 29.2721 45.6644C29.1398 44.7502 29.0892 43.8259 29.1209 42.9027C29.1425 42.5256 29.1838 42.15 29.2446 41.7773C29.3845 41.0021 29.7896 40.3003 30.39 39.7934C31.0307 39.2768 31.7058 38.8047 32.4104 38.3804C32.6395 38.2262 32.8823 38.0743 33.116 37.9201C33.3359 37.7476 33.5653 37.5877 33.8032 37.4414C34.6118 37.0179 35.2143 36.3528 35.8397 35.713C36.37 35.178 36.791 34.5439 37.079 33.8465C37.2943 33.3218 37.5371 32.8086 37.7662 32.293C38.1464 31.5043 38.6799 30.8 39.3354 30.2217C39.5786 29.9993 39.873 29.8412 40.1921 29.7615C40.5105 29.6809 40.8221 29.5727 41.1359 29.5106C41.412 29.4639 41.6716 29.3466 41.8896 29.17C41.9297 29.1466 41.9763 29.137 42.0224 29.1424C42.066 29.1424 42.1301 29.1562 42.1484 29.1861C42.1668 29.216 42.2263 29.3265 42.2057 29.3702C42.1483 29.4976 42.0709 29.6149 41.9766 29.7177C41.83 29.8696 41.6582 29.9985 41.5047 30.1435C41.134 30.4732 40.8699 30.9068 40.7465 31.3886C40.6253 31.8939 40.4581 32.3869 40.2471 32.8615C40.0086 33.3478 39.7369 33.8168 39.4339 34.2654C38.9535 34.9905 38.5453 35.7613 38.2152 36.5668C37.9861 37.156 37.7135 37.7336 37.4799 38.3251C37.3764 38.5882 37.2996 38.8612 37.2508 39.1398C37.118 39.8916 36.6979 40.5615 36.0802 41.0063C35.8338 41.1874 35.5742 41.3497 35.3037 41.4919C34.0392 42.1741 32.8915 43.0552 31.9042 44.1017C31.6598 44.3943 31.447 44.7121 31.2696 45.0499C30.617 46.0994 30.2974 47.3234 30.3533 48.5596C30.3669 49.2221 30.5232 49.8738 30.8115 50.4698C30.9742 50.7565 31.091 51.0672 31.1574 51.3904C31.172 51.4844 31.2039 51.575 31.2513 51.6574C31.6957 52.3754 32.0027 53.1786 32.5914 53.8115C32.9671 54.1889 33.258 54.6239 33.5764 55.0313ZM18.3841 31.9317L18.2787 31.8604L18.2787 31.9179L18.3956 31.9179L18.9202 32.491C19.2268 32.7098 19.4747 33.0016 19.6417 33.3402C19.8319 33.6647 20.0289 33.9846 20.219 34.3114C20.7047 35.1445 21.1949 35.9753 21.6668 36.8177C22.2776 37.9055 22.8778 39.0002 23.4673 40.1018C23.7998 40.6434 24.0828 41.2142 24.3126 41.8072C24.4729 42.302 24.615 42.7991 24.7593 43.2962C25.1533 44.6541 25.4923 46.0257 26.0834 47.3191C26.4237 48.1215 26.8492 48.8846 27.3524 49.5953C27.4647 49.7472 27.5815 49.8899 27.7098 50.0325C27.7258 50.0487 27.7808 50.0325 27.8152 50.0325C27.8237 50.0111 27.8237 49.9872 27.8152 49.9658C27.7556 49.8668 27.696 49.7679 27.6296 49.6735C27.2123 49.1279 26.9127 48.5008 26.75 47.8324C26.6996 47.6265 26.6314 47.4255 26.5461 47.2317C26.2062 46.3267 25.9881 45.3801 25.8978 44.417C25.8503 44.0438 25.7666 43.6762 25.6481 43.3192C25.2274 42.0921 24.7096 40.9007 24.0996 39.7566C23.4482 38.5293 22.7262 37.3413 21.9371 36.1986C21.3232 35.3056 20.6863 34.4288 20.0426 33.5588C19.7688 33.2055 19.4759 32.8674 19.1653 32.5462C19.1172 32.4933 18.9957 32.5094 18.911 32.4887C18.888 32.3538 18.8256 32.2289 18.7318 32.1298C18.638 32.0306 18.517 31.9617 18.3841 31.9317V31.9317ZM27.8266 18.0218C27.7487 17.2992 27.68 16.5742 27.5975 15.8516C27.5212 15.2673 27.4975 14.6772 27.5265 14.0887C27.554 13.5961 27.5678 13.1013 27.5471 12.6065C27.5068 11.5236 27.61 10.4401 27.8541 9.38451C27.8875 9.15583 27.9058 8.92519 27.9091 8.69408C27.6342 8.76542 27.6365 9.0416 27.5403 9.23262C27.3599 9.58953 27.2008 9.95687 27.0638 10.3327C26.8187 10.9454 26.6502 11.5863 26.5621 12.2406C26.3699 14.1044 26.7083 15.9847 27.538 17.6628C27.609 17.8101 27.6754 17.9666 27.8472 18.0264C27.8472 18.0402 27.8266 18.054 27.8175 18.0701C27.8083 18.0863 27.8175 18.0701 27.8175 18.0701L27.8266 18.0218ZM18.5238 20.4245C18.4345 20.4613 18.3475 20.5005 18.3727 20.6224C18.4414 20.9446 18.5147 21.2645 18.5811 21.5867C18.7804 22.5557 18.9614 23.5269 19.179 24.4912C19.301 25.1172 19.5205 25.7199 19.8296 26.2771C20.2877 27.0665 20.7596 27.8582 21.2453 28.6361C21.6501 29.3006 22.1591 29.8951 22.7526 30.3967C23.2932 30.8569 23.8292 31.3011 24.3744 31.7476C24.4883 31.8294 24.6086 31.9018 24.7341 31.9639C24.7455 31.9639 24.7776 31.9478 24.7937 31.934C24.8097 31.9202 24.8211 31.8949 24.8166 31.8834C24.7984 31.8167 24.7689 31.7537 24.7295 31.697C24.3717 31.3224 24.07 30.8975 23.8338 30.4358C23.7568 30.2899 23.6535 30.1596 23.5292 30.0514C23.069 29.6156 22.6331 29.1546 22.2234 28.6706C21.7163 28.1139 21.3066 27.4751 21.0116 26.7811C20.8398 26.3968 20.6588 26.0147 20.4893 25.6304C20.1686 24.8985 19.8227 24.1759 19.5432 23.4279C19.1721 22.4383 18.856 21.4279 18.5055 20.436L18.4185 20.3371C18.4185 20.3371 18.3933 20.3371 18.3795 20.3371L18.5238 20.4245ZM41.6949 25.1816C41.7622 25.4073 41.9045 25.6031 42.098 25.7362C42.6189 26.0511 43.1681 26.3161 43.7382 26.5279C43.8184 26.5533 43.9673 26.5579 43.9879 26.5279C44.036 26.4106 43.9169 26.376 43.8367 26.3392C43.4954 26.1873 43.1495 26.0561 42.8105 25.8789C42.421 25.6764 42.0018 25.513 41.6949 25.1747C41.6513 25.1747 41.5941 25.1747 41.562 25.1586C41.172 24.893 40.7285 24.717 40.2631 24.6431C39.7798 24.5512 39.3152 24.3785 38.8887 24.1321C38.2096 23.7494 37.458 23.5142 36.6827 23.4417C36.4526 23.4148 36.2196 23.4312 35.9955 23.49C35.2702 23.6929 34.6055 24.0714 34.0598 24.5924C33.3434 25.2857 32.739 26.0871 32.2684 26.9675C31.9317 27.559 31.5812 28.1435 31.233 28.7327C31.1807 28.8317 31.1348 28.9339 31.0955 29.0388C31.2673 29.1056 31.3246 28.9375 31.4231 28.8662C31.5107 28.7919 31.5877 28.706 31.6522 28.6107C31.9536 28.2483 32.3019 27.9279 32.6876 27.6579C33.0888 27.3713 33.4714 27.0592 33.833 26.7236C34.2888 26.2802 34.842 25.9506 35.448 25.7616C35.6753 25.7031 35.8975 25.6262 36.1123 25.5314C36.384 25.3915 36.6807 25.307 36.9851 25.2829C37.4511 25.2325 37.9113 25.1377 38.3595 24.9998C39.125 24.7428 39.9554 24.7599 40.7098 25.0481C40.9389 25.1448 41.2001 25.2046 41.4475 25.2783C41.4936 25.2899 41.5422 25.2869 41.5865 25.2696C41.6309 25.2523 41.6687 25.2215 41.6949 25.1816ZM43.1083 27.002L43.1243 26.9606L43.0899 27.002C43.0222 26.8513 42.9049 26.7286 42.7578 26.6545C42.441 26.5013 42.1349 26.3268 41.8415 26.1321C41.5519 25.9305 41.2407 25.7622 40.9137 25.6304C40.0691 25.2527 39.1169 25.1955 38.2335 25.4693C37.8971 25.5726 37.5532 25.6495 37.205 25.6994C36.2532 25.8565 35.3402 26.1956 34.5156 26.6982C34.3327 26.8096 34.1649 26.9442 34.0162 27.0987C33.6024 27.5171 33.149 27.894 32.6624 28.2241C32.4599 28.3842 32.2734 28.5638 32.1058 28.7603C32.0691 28.7995 32.0737 28.8892 32.0783 28.9537C32.1141 28.9793 32.1582 28.9908 32.202 28.9859C32.569 28.9051 32.929 28.7951 33.2786 28.6568C34.1175 28.2857 34.9746 27.9577 35.8466 27.6741C35.9813 27.6333 36.1118 27.5794 36.236 27.513C36.811 27.1769 37.4409 27.1378 38.0686 27.1631C38.6321 27.1861 39.1911 27.2529 39.7546 27.2874C39.9881 27.3058 40.2229 27.3012 40.4556 27.2736C40.8748 27.2184 41.2894 27.1401 41.704 27.0573C41.841 27.0356 41.9702 26.9794 42.0797 26.8939C42.1447 26.8255 42.229 26.779 42.3212 26.7604C42.4134 26.7419 42.509 26.7523 42.5951 26.7903C42.7738 26.8547 42.941 26.9307 43.1083 27.002V27.002ZM32.6074 40.8107C33.5271 39.9693 34.4018 39.0797 35.2281 38.1456C35.7569 37.5466 36.2365 36.9055 36.6621 36.2285C36.8958 35.9048 37.1114 35.5682 37.3081 35.2205C37.6721 34.4801 38.1438 33.7983 38.7077 33.1975C38.9043 32.9962 39.088 32.7825 39.2575 32.5577C39.4764 32.2825 39.6718 31.9891 39.8416 31.6809C39.9813 31.3827 40.1509 31.0997 40.3479 30.8362C40.4662 30.662 40.5668 30.4761 40.648 30.2816C40.6564 30.2602 40.6589 30.2369 40.6552 30.2142C40.6515 30.1916 40.6417 30.1703 40.6268 30.1528C40.612 30.1353 40.5927 30.1222 40.571 30.1149C40.5493 30.1076 40.526 30.1063 40.5037 30.1113C40.3877 30.1267 40.2735 30.1529 40.1623 30.1895C39.7549 30.3745 39.3935 30.6481 39.104 30.9904C38.556 31.5743 38.1237 32.2577 37.8304 33.0042C37.6311 33.4829 37.418 33.957 37.2027 34.4265C37.0032 34.8802 36.7385 35.3021 36.417 35.6785C35.9024 36.2926 35.3181 36.8441 34.676 37.3217C33.778 37.9615 32.8434 38.5461 31.9271 39.1628C31.4689 39.4827 31.0108 39.8142 30.5755 40.1778C30.0827 40.5867 29.7493 41.1572 29.634 41.7888C29.5951 41.9982 29.5607 42.2076 29.5287 42.4171C29.4439 43.0964 29.4439 43.7837 29.5287 44.4631C29.5836 45.0729 29.6524 45.6805 29.7188 46.2904C29.7188 46.3295 29.7577 46.3641 29.7761 46.4032C29.8104 46.3525 29.8723 46.3019 29.8746 46.2513C29.9227 44.7991 30.4839 43.5034 31.0955 42.2261C31.1665 42.0788 31.2765 41.9499 31.3544 41.8049C31.4484 41.6418 31.5815 41.505 31.7415 41.4067C32.0393 41.2203 32.3211 41.0109 32.6074 40.8061L32.6074 40.8107ZM35.7847 40.7577C36.3895 40.2721 36.575 39.9522 36.7812 39.1905C36.915 38.7145 37.0757 38.2466 37.2622 37.7889C37.4913 37.2204 37.7571 36.6704 37.9907 36.1065C38.2277 35.5417 38.512 34.9982 38.8406 34.4817C39.0697 34.1043 39.2987 33.7176 39.5278 33.331C39.6124 33.189 39.6889 33.0422 39.7569 32.8914C39.7569 32.8638 39.7363 32.8178 39.7248 32.781C39.7042 32.781 39.6767 32.7809 39.6607 32.8086C38.9674 33.4453 38.3824 34.1916 37.9289 35.018C37.5489 35.7223 37.1122 36.3943 36.6231 37.0271C36.5521 37.1215 36.4971 37.225 36.4238 37.3171C36.0367 37.8211 35.6748 38.3481 35.2464 38.813C34.7218 39.3815 34.1468 39.9039 33.5787 40.424C33.0793 40.8843 32.5708 41.3446 32.0439 41.7727C31.6972 42.0571 31.4257 42.4231 31.2536 42.8382C31.0428 43.3354 30.839 43.8371 30.6511 44.3457C30.4879 44.8129 30.381 45.2982 30.3327 45.791C30.3327 45.8186 30.3808 45.8531 30.4083 45.8807C30.4273 45.8754 30.4441 45.8641 30.4564 45.8485C30.5503 45.6575 30.6374 45.4642 30.7336 45.2778C31.0521 44.6205 31.4676 44.0153 31.966 43.4826C32.4384 43.0248 32.9438 42.6025 33.4779 42.2192C33.9636 41.8532 34.4927 41.5448 35.0081 41.218C35.2464 41.0569 35.5213 40.9073 35.7847 40.7531L35.7847 40.7577ZM36.2429 10.9012C36.0871 11.007 35.929 11.1083 35.7847 11.2165C35.4467 11.4688 35.1391 11.76 34.8684 12.0841C34.6558 12.3358 34.5121 12.6388 34.4515 12.9633C34.4499 12.9843 34.4531 13.0055 34.4611 13.0251C34.4691 13.0447 34.4815 13.0621 34.4973 13.076C34.5151 13.0861 34.5353 13.0914 34.5557 13.0914C34.5762 13.0914 34.5963 13.0861 34.6141 13.076C35.355 12.4949 36.1453 11.9805 36.9759 11.5387C37.5257 11.2257 38.0526 10.8689 38.6 10.5513C38.9847 10.3244 39.3824 10.1207 39.7912 9.94146C40.9779 9.43514 42.192 8.99096 43.3602 8.43862C43.5271 8.35219 43.711 8.30423 43.8986 8.29823C44.2741 8.30271 44.6487 8.33735 45.0188 8.4018C45.2416 8.42557 45.4556 8.50252 45.6429 8.62622C45.8302 8.74992 45.9853 8.9168 46.0954 9.11294C46.1785 9.25453 46.2696 9.3913 46.368 9.5226C46.4176 9.60198 46.4711 9.67879 46.5284 9.75274C46.542 9.76886 46.5593 9.78131 46.579 9.78895C46.5986 9.79658 46.6198 9.79917 46.6406 9.79647C46.6589 9.78673 46.6746 9.77261 46.6862 9.75535C46.6978 9.73809 46.7049 9.71822 46.707 9.69751C46.6818 9.3684 46.6475 9.0416 46.6177 8.71249C46.6171 8.60293 46.5814 8.49648 46.5158 8.40899C46.4501 8.32149 46.3581 8.25762 46.2535 8.22689C45.949 8.10733 45.6515 7.97056 45.3624 7.81723C44.835 7.55002 44.2509 7.41574 43.6603 7.42598C43.1449 7.42598 42.6295 7.48122 42.1141 7.49043C41.1971 7.53851 40.3007 7.78169 39.4843 8.20387C38.9266 8.46049 38.4216 8.81954 37.9953 9.26253C37.4547 9.83789 36.9255 10.4501 36.2497 10.8966L36.2429 10.9012ZM25.3961 48.0165C25.742 48.387 26.0834 48.7645 26.4499 49.1396C26.4819 49.167 26.5173 49.1902 26.5552 49.2086C26.5549 49.1639 26.5472 49.1196 26.5323 49.0774C26.3445 48.723 26.1246 48.387 25.9665 48.0211C25.484 46.9478 25.0767 45.842 24.7478 44.7116C24.6081 44.1892 24.4569 43.6691 24.3286 43.1443C24.0979 42.2057 23.7379 41.304 23.2588 40.4655C22.6151 39.3147 22.0035 38.1525 21.3758 36.9972C21.1834 36.6474 20.9818 36.3068 20.7825 35.9592C20.7825 35.9408 20.7413 35.9224 20.7276 35.927C20.7168 35.9316 20.7073 35.9388 20.7001 35.9481C20.6929 35.9574 20.6881 35.9683 20.6863 35.98C20.6945 36.1195 20.7098 36.2585 20.7321 36.3965C20.9291 37.5081 21.2155 38.6036 21.3461 39.729C21.3781 39.9652 21.4373 40.1969 21.5225 40.4194C21.6759 40.8383 21.85 41.2502 22.0195 41.6645C22.4777 42.7761 23.0825 43.8141 23.6231 44.8865C24.1064 45.8278 24.6425 46.7415 25.1556 47.6644C25.2174 47.7771 25.3022 47.8899 25.3961 48.0165ZM35.5808 12.8574C35.3518 13.0461 35.0883 13.2187 34.8684 13.4281C34.7461 13.5691 34.64 13.7235 34.5523 13.8884C34.7516 13.9782 34.9051 13.8401 35.0769 13.7849C35.1882 13.7485 35.2975 13.7062 35.4044 13.6583C36.211 13.2835 37.056 12.9987 37.9243 12.8091C38.222 12.7427 38.5078 12.6309 38.7719 12.4776C39.5049 12.0542 40.2196 11.6031 40.9412 11.1635C41.6628 10.7239 42.3569 10.2429 43.1541 9.93686C43.5015 9.79067 43.8777 9.72688 44.2536 9.75044C44.7874 9.79417 45.3326 9.76885 45.8572 9.96217C45.8732 9.96217 45.9144 9.96217 45.919 9.94376C45.9236 9.92535 45.9488 9.86091 45.9328 9.83099C45.8772 9.70052 45.8081 9.57632 45.7266 9.46046C45.567 9.19722 45.3254 8.99419 45.0394 8.8828C44.4461 8.7309 43.8688 8.63884 43.2572 8.92192C42.1301 9.44435 40.9664 9.90464 39.821 10.3718C39.3577 10.539 38.9204 10.7715 38.5222 11.0623C38.3478 11.1818 38.1656 11.2894 37.977 11.3845C37.1683 11.8563 36.3207 12.2682 35.5808 12.8574ZM22.2509 28.1689C22.3746 28.3116 22.4914 28.4588 22.6243 28.5923C22.7572 28.7258 22.8969 28.9813 23.1443 29.0526C23.2886 28.8225 23.0847 28.6269 23.0573 28.4128C22.9977 27.9226 22.9198 27.4347 22.8809 26.9445C22.8521 26.2126 22.6612 25.4963 22.3219 24.8479C22.0063 24.2958 21.6559 23.7647 21.2728 23.2576C20.2673 21.9839 19.3765 20.623 18.6109 19.1909C18.5575 19.0862 18.4978 18.9847 18.4322 18.8872C18.4015 18.8528 18.365 18.824 18.3246 18.802C18.3246 18.8434 18.3039 18.8895 18.3246 18.9263C18.5009 19.4096 18.6819 19.8929 18.8606 20.3785C18.966 20.6639 19.0897 20.9469 19.1721 21.2392C19.5147 22.3882 19.931 23.5136 20.4183 24.6085C20.7482 25.3358 21.078 26.063 21.4171 26.788C21.6421 27.2785 21.9218 27.7418 22.2509 28.1689V28.1689ZM28.3741 8.36037C28.3306 8.36037 28.3054 8.36037 28.2893 8.36037C28.2789 8.36579 28.2697 8.37327 28.2622 8.38237C28.2547 8.39146 28.2491 8.40199 28.2458 8.4133C28.1977 8.76312 28.1702 9.11754 28.0992 9.46276C27.9441 10.3448 27.8675 11.239 27.8701 12.1347C27.8564 12.7239 27.8701 13.3131 27.8701 13.9022C27.8391 14.6568 27.8783 15.4127 27.987 16.16C28.0305 16.3901 28.0557 16.6202 28.0923 16.8504C28.2115 17.5937 28.3329 18.3394 28.4566 19.0828C28.4803 19.198 28.5132 19.3112 28.5551 19.4211C28.6994 19.8446 28.8483 20.268 28.9972 20.6892C29.0203 20.755 29.0486 20.8189 29.082 20.8802C29.0905 20.8887 29.1012 20.8947 29.1129 20.8975C29.1246 20.9003 29.1369 20.8999 29.1484 20.8963C29.1596 20.8934 29.1699 20.8879 29.1786 20.8803C29.1874 20.8727 29.1943 20.8633 29.1988 20.8526C29.2143 20.7366 29.222 20.6198 29.2217 20.5028C29.1946 19.7477 29.0793 18.9984 28.8781 18.2704C28.696 17.659 28.577 17.0305 28.523 16.3947C28.4199 14.7837 28.4543 13.1888 28.452 11.5847C28.452 10.5974 28.4382 9.60775 28.4268 8.61813C28.4157 8.531 28.3981 8.44484 28.3741 8.36037V8.36037ZM28.4153 50.9163C28.5864 51.0876 28.7886 51.2243 29.0109 51.3191C29.0336 51.3234 29.057 51.3234 29.0797 51.3191C29.0797 51.2983 29.0797 51.2707 29.0659 51.2592C28.8529 51.0406 28.6421 50.8242 28.4222 50.6148C28.4039 50.5964 28.3466 50.6148 28.3077 50.6286C28.3012 50.648 28.3012 50.669 28.3077 50.6885C28.3397 50.7437 28.3741 50.8035 28.4222 50.9163L28.4153 50.9163ZM28.633 32.5508L28.633 32.5922L28.6673 32.5738L28.633 32.5508Z" fill="#657163"></path>
</svg><style>@media (prefers-color-scheme: light) { :root { filter: none; } }
@media (prefers-color-scheme: dark) { :root { filter: none; } }
</style></svg>